<svg width="200" height="55" viewBox="0 0 200 55" fill="none" xmlns="http://www.w3.org/2000/svg">
<path d="M54.78 18.5751H51.6V25.8278H54.78C57.58 25.8278 58.86 24.5586 58.86 22.2216C58.86 19.8443 57.6 18.5751 54.78 18.5751Z" fill="black"/>
<path d="M80.84 30.4414L87.36 30.4414L84.1 21.8187L80.84 30.4414Z" fill="black"/>
<path fill-rule="evenodd" clip-rule="evenodd" d="M0 55L0 0L200 0L200 55L0 55ZM27.62 41.8443C33.2 41.8443 37.68 39.9707 39.26 39.2857L39.26 26.1905L28.34 26.1905V31.3278L32.38 31.3278V35.8407C31.34 36.2839 30.26 36.5659 28.76 36.5659C24.14 36.5659 20.88 33.4029 20.88 27.8425C20.88 22.0403 24.34 18.9377 29.36 18.9377C33.2 18.9377 35.82 20.3077 38.14 22.141V15.8352C35.86 14.1026 32.02 13.0952 28.26 13.0952C20.24 13.0952 13.16 18.5348 13.18 27.3791C13.18 36.2234 19.78 41.8443 27.62 41.8443ZM53.6 30.522L60.72 41.0586V41.0385L68.7 41.0385L60.78 29.7766C64.14 28.7289 66.08 25.7674 66.08 22.1209C66.08 17.6886 63.24 13.6795 56.62 13.6795L44.26 13.6795L44.26 41.0586H51.6L51.6 30.522H53.6ZM89.14 35.2161L91.44 41.0586H98.74L87.32 13.6795L81.12 13.6795L69.7 41.0586H76.82L79.08 35.2161L89.14 35.2161ZM119.72 41.0586H125.3L125.3 13.6795L118.82 13.6795L118.82 29.4139L106.5 13.6795L100.92 13.6795L100.92 41.0586H107.4V25.3242L119.72 41.0586ZM130.48 41.0586L137.82 41.0586V13.6795L130.48 13.6795V41.0586ZM156.04 19.2601L164.78 19.2601V13.6795L139.96 13.6795V19.2601L148.7 19.2601V41.0787L156.04 41.0787V19.2601ZM174.32 19.2601L185.88 19.2601V13.6795L167 13.6795V41.0586L185.88 41.0586L185.88 35.4982H174.32V29.3938L183.6 29.3938V23.8736L174.32 23.8736V19.2601Z" fill="black"/>
</svg>
