<svg width="1440" height="762" viewBox="0 0 1440 762" fill="none" xmlns="http://www.w3.org/2000/svg">
<g clip-path="url(#clip0)">
<path fill-rule="evenodd" clip-rule="evenodd" d="M1440 -316H0V1547H1440V-316ZM273.88 360.92C283.24 372.88 299.1 378.86 321.46 378.86C343.126 378.86 358.38 373.4 367.22 362.48C376.06 351.387 380.48 335.787 380.48 315.68V298.26H338.88V318.8C338.88 328.507 337.84 335.873 335.76 340.9C333.68 345.753 329 348.18 321.72 348.18C314.613 348.18 309.76 345.753 307.16 340.9C304.56 336.047 303.26 328.68 303.26 318.8V223.12C303.26 213.413 304.386 206.047 306.64 201.02C308.893 195.993 313.92 193.48 321.72 193.48C326.92 193.48 330.733 194.78 333.16 197.38C335.76 199.807 337.32 202.927 337.84 206.74C338.533 210.553 338.88 215.58 338.88 221.82V241.32H380.48V223.64C380.48 204.053 375.973 189.06 366.96 178.66C358.12 168.087 342.953 162.8 321.46 162.8C298.926 162.8 282.98 168.78 273.62 180.74C264.433 192.527 259.84 210.033 259.84 233.26V308.66C259.84 331.367 264.52 348.787 273.88 360.92ZM484.671 165.4H437.091L396.271 376H436.571L444.631 329.72H477.911L485.711 376H525.231L484.671 165.4ZM461.011 218.44L473.751 303.2H448.531L461.011 218.44ZM601.173 165.4H546.573V376H589.213V280.58H604.813L628.733 376H672.673L643.553 273.3C653.26 268.967 660.02 262.64 663.833 254.32C667.646 245.827 669.553 234.733 669.553 221.04C669.553 200.587 663.833 186.2 652.393 177.88C640.953 169.56 623.88 165.4 601.173 165.4ZM623.013 247.82C619.026 252.673 612.006 255.1 601.953 255.1H589.213V194.26H604.033C613.566 194.26 620.153 196.687 623.793 201.54C627.433 206.393 629.253 214.02 629.253 224.42C629.253 234.993 627.173 242.793 623.013 247.82ZM789.935 165.4H698.155V376H790.455V346.88H740.795V280.84H778.755V250.94H740.795V195.04H789.935V165.4ZM904.193 165.4H812.413V376H904.713V346.88H855.053V280.84H893.013V250.94H855.053V195.04H904.193V165.4ZM981.271 165.4H926.671V376H969.311V280.58H984.911L1008.83 376H1052.77L1023.65 273.3C1033.36 268.967 1040.12 262.64 1043.93 254.32C1047.74 245.827 1049.65 234.733 1049.65 221.04C1049.65 200.587 1043.93 186.2 1032.49 177.88C1021.05 169.56 1003.98 165.4 981.271 165.4ZM1003.11 247.82C999.124 252.673 992.104 255.1 982.051 255.1H969.311V194.26H984.131C993.664 194.26 1000.25 196.687 1003.89 201.54C1007.53 206.393 1009.35 214.02 1009.35 224.42C1009.35 234.993 1007.27 242.793 1003.11 247.82ZM1088.15 363C1097.86 373.573 1112.42 378.86 1131.83 378.86C1142.58 378.86 1152.02 376.607 1160.17 372.1C1168.49 367.593 1174.9 361.44 1179.41 353.64C1183.92 345.667 1186.17 336.653 1186.17 326.6C1186.17 313.427 1183.31 301.987 1177.59 292.28C1171.87 282.4 1163.98 273.04 1153.93 264.2L1132.61 245.48C1126.02 239.76 1121.17 234.56 1118.05 229.88C1115.1 225.027 1113.63 219.133 1113.63 212.2C1113.63 207.347 1114.93 203.187 1117.53 199.72C1120.13 196.08 1123.77 194.26 1128.45 194.26C1134.86 194.26 1139.11 196.947 1141.19 202.32C1143.44 207.52 1144.74 215.667 1145.09 226.76L1182.27 221.3C1181.23 204.313 1176.98 190.36 1169.53 179.44C1162.08 168.347 1148.82 162.8 1129.75 162.8C1111.9 162.8 1097.86 167.48 1087.63 176.84C1077.58 186.027 1072.55 199.2 1072.55 216.36C1072.55 227.973 1074.8 237.94 1079.31 246.26C1083.99 254.58 1090.66 262.38 1099.33 269.66L1121.17 288.64C1129.14 295.573 1134.95 301.987 1138.59 307.88C1142.4 313.6 1144.31 320.62 1144.31 328.94C1144.31 333.967 1143.18 338.127 1140.93 341.42C1138.68 344.54 1135.04 346.1 1130.01 346.1C1123.25 346.1 1118.14 342.98 1114.67 336.74C1111.38 330.327 1109.56 320.447 1109.21 307.1L1072.29 313.34C1073.16 335.7 1078.44 352.253 1088.15 363ZM809.664 437.943L826.064 454.443L827.115 455.5L826.064 456.557L809.664 473.057L807.536 470.943L821.394 457H758V454H821.394L807.536 440.057L809.664 437.943ZM610.465 445.867V463H620.52V460.598H613.266V445.867H610.465ZM624.105 461.477C625.246 462.648 626.824 463.234 628.84 463.234C629.723 463.234 630.508 463.168 631.195 463.035C631.883 462.902 632.562 462.676 633.234 462.355V460.117C632.477 460.453 631.766 460.695 631.102 460.844C630.445 460.984 629.734 461.055 628.969 461.055C627.805 461.055 626.902 460.719 626.262 460.047C625.621 459.367 625.281 458.398 625.242 457.141H633.879V455.652C633.879 453.832 633.383 452.402 632.391 451.363C631.398 450.324 630.047 449.805 628.336 449.805C626.492 449.805 625.043 450.41 623.988 451.621C622.934 452.832 622.406 454.496 622.406 456.613C622.406 458.676 622.973 460.297 624.105 461.477ZM626.227 452.723C626.758 452.168 627.461 451.891 628.336 451.891C629.211 451.891 629.898 452.168 630.398 452.723C630.898 453.27 631.156 454.078 631.172 455.148H625.289C625.391 454.086 625.703 453.277 626.227 452.723ZM644.566 461.195L645.117 463H647.086V454.27C647.086 452.73 646.664 451.602 645.82 450.883C644.984 450.164 643.742 449.805 642.094 449.805C641.352 449.805 640.562 449.902 639.727 450.098C638.891 450.285 638.121 450.562 637.418 450.93L638.309 452.898C638.871 452.633 639.457 452.402 640.066 452.207C640.676 452.012 641.312 451.914 641.977 451.914C642.789 451.914 643.387 452.121 643.77 452.535C644.16 452.941 644.355 453.559 644.355 454.387V455.078L642.117 455.148C640.086 455.211 638.574 455.582 637.582 456.262C636.59 456.941 636.094 457.949 636.094 459.285C636.094 460.543 636.449 461.516 637.16 462.203C637.879 462.891 638.875 463.234 640.148 463.234C641.141 463.234 641.953 463.094 642.586 462.812C643.219 462.523 643.848 461.984 644.473 461.195H644.566ZM643.418 460.293C642.816 460.848 642.016 461.125 641.016 461.125C640.328 461.125 639.812 460.969 639.469 460.656C639.125 460.336 638.953 459.887 638.953 459.309C638.953 458.512 639.246 457.922 639.832 457.539C640.426 457.148 641.371 456.93 642.668 456.883L644.332 456.812V457.938C644.332 458.945 644.027 459.73 643.418 460.293ZM658.875 449.922C658.516 449.844 658.059 449.805 657.504 449.805C656.707 449.805 655.961 450.031 655.266 450.484C654.578 450.938 654.02 451.551 653.59 452.324H653.449L653.086 450.039H650.93V463H653.684V456.227C653.684 455.078 654.023 454.145 654.703 453.426C655.391 452.707 656.285 452.348 657.387 452.348C657.809 452.348 658.215 452.395 658.605 452.488L658.875 449.922ZM669.926 463H672.691V454.551C672.691 451.387 671.137 449.805 668.027 449.805C667.152 449.805 666.355 449.973 665.637 450.309C664.918 450.645 664.363 451.121 663.973 451.738H663.832L663.445 450.039H661.289V463H664.043V456.543C664.043 454.926 664.312 453.773 664.852 453.086C665.391 452.398 666.242 452.055 667.406 452.055C668.281 452.055 668.918 452.301 669.316 452.793C669.723 453.285 669.926 454.031 669.926 455.031V463ZM685.488 448.691L690.457 463H692.93L698.074 448.715H698.168C698.149 448.89 698.127 449.264 698.102 449.836C698.086 450.207 698.069 450.661 698.051 451.199C698.012 452.566 697.992 453.676 697.992 454.527V463H700.688V445.867H696.727L691.828 459.496H691.758L687 445.867H683.051V463H685.594V454.668C685.594 452.809 685.527 450.816 685.395 448.691H685.488ZM714.773 461.453C715.859 460.266 716.402 458.613 716.402 456.496C716.402 454.449 715.855 452.824 714.762 451.621C713.668 450.41 712.184 449.805 710.309 449.805C708.348 449.805 706.828 450.395 705.75 451.574C704.672 452.754 704.133 454.395 704.133 456.496C704.133 457.848 704.383 459.035 704.883 460.059C705.383 461.082 706.098 461.867 707.027 462.414C707.957 462.961 709.027 463.234 710.238 463.234C712.176 463.234 713.688 462.641 714.773 461.453ZM710.285 460.984C708.074 460.984 706.969 459.488 706.969 456.496C706.969 455.066 707.227 453.969 707.742 453.203C708.266 452.438 709.105 452.055 710.262 452.055C712.465 452.055 713.566 453.535 713.566 456.496C713.566 459.488 712.473 460.984 710.285 460.984ZM727.523 449.922C727.164 449.844 726.707 449.805 726.152 449.805C725.355 449.805 724.609 450.031 723.914 450.484C723.227 450.938 722.668 451.551 722.238 452.324H722.098L721.734 450.039H719.578V463H722.332V456.227C722.332 455.078 722.672 454.145 723.352 453.426C724.039 452.707 724.934 452.348 726.035 452.348C726.457 452.348 726.863 452.395 727.254 452.488L727.523 449.922ZM730.863 461.477C732.004 462.648 733.582 463.234 735.598 463.234C736.48 463.234 737.266 463.168 737.953 463.035C738.641 462.902 739.32 462.676 739.992 462.355V460.117C739.234 460.453 738.523 460.695 737.859 460.844C737.203 460.984 736.492 461.055 735.727 461.055C734.562 461.055 733.66 460.719 733.02 460.047C732.379 459.367 732.039 458.398 732 457.141H740.637V455.652C740.637 453.832 740.141 452.402 739.148 451.363C738.156 450.324 736.805 449.805 735.094 449.805C733.25 449.805 731.801 450.41 730.746 451.621C729.691 452.832 729.164 454.496 729.164 456.613C729.164 458.676 729.73 460.297 730.863 461.477ZM732.984 452.723C733.516 452.168 734.219 451.891 735.094 451.891C735.969 451.891 736.656 452.168 737.156 452.723C737.656 453.27 737.914 454.078 737.93 455.148H732.047C732.148 454.086 732.461 453.277 732.984 452.723Z" fill="white"/>
</g>
<defs>
<clipPath id="clip0">
<rect width="1440" height="762" fill="white"/>
</clipPath>
</defs>
</svg>
