<svg width="1440" height="1440" viewBox="0 0 1440 1440" fill="none" xmlns="http://www.w3.org/2000/svg">
<g clip-path="url(#clip0)">
<path fill-rule="evenodd" clip-rule="evenodd" d="M0 0H1440V1863H0V0ZM143.736 769.85C117.603 769.85 98.003 762.733 84.9363 748.5C71.8697 734.033 64.753 711.75 63.5863 681.65L113.286 673.25C113.753 691.217 116.203 704.517 120.636 713.15C125.303 721.55 132.186 725.75 141.286 725.75C148.053 725.75 152.953 723.65 155.986 719.45C159.02 715.017 160.536 709.417 160.536 702.65C160.536 691.45 157.97 682 152.836 674.3C147.936 666.367 140.12 657.733 129.386 648.4L99.9863 622.85C88.3197 613.05 79.3363 602.55 73.0363 591.35C66.9697 580.15 63.9363 566.733 63.9363 551.1C63.9363 528 70.703 510.267 84.2363 497.9C98.003 485.3 116.903 479 140.936 479C166.603 479 184.453 486.467 194.486 501.4C204.52 516.1 210.236 534.883 211.636 557.75L161.586 565.1C161.12 550.167 159.37 539.2 156.336 532.2C153.536 524.967 147.82 521.35 139.186 521.35C132.886 521.35 127.986 523.8 124.486 528.7C120.986 533.367 119.236 538.967 119.236 545.5C119.236 554.833 121.22 562.767 125.186 569.3C129.386 575.6 135.92 582.6 144.786 590.3L173.486 615.5C187.02 627.4 197.636 640 205.336 653.3C213.036 666.367 216.886 681.767 216.886 699.5C216.886 713.033 213.853 725.167 207.786 735.9C201.72 746.4 193.086 754.683 181.886 760.75C170.92 766.817 158.203 769.85 143.736 769.85ZM247.295 482.5H370.845V522.4H304.695V597.65H355.795V637.9H304.695V726.8H371.545V766H247.295V482.5ZM401.104 482.5H474.604C505.171 482.5 528.154 488.1 543.554 499.3C558.954 510.5 566.654 529.867 566.654 557.4C566.654 575.833 564.087 590.767 558.954 602.2C553.821 613.4 544.721 621.917 531.654 627.75L570.854 766H511.704L479.504 637.55H458.504V766H401.104V482.5ZM475.654 603.25C489.187 603.25 498.637 599.983 504.004 593.45C509.604 586.683 512.404 576.183 512.404 561.95C512.404 547.95 509.954 537.683 505.054 531.15C500.154 524.617 491.287 521.35 478.454 521.35H458.504V603.25H475.654ZM589.798 482.5H639.848L673.448 678.5L704.948 482.5H757.098L703.198 766H643.698L589.798 482.5ZM786.667 482.5H844.067V766H786.667V482.5ZM965.889 769.85C935.789 769.85 914.439 761.8 901.839 745.7C889.239 729.367 882.939 705.917 882.939 675.35V573.85C882.939 542.583 889.122 519.017 901.489 503.15C914.089 487.05 935.556 479 965.889 479C994.822 479 1015.24 486.117 1027.14 500.35C1039.27 514.35 1045.34 534.533 1045.34 560.9V584.7H989.339V558.45C989.339 550.05 988.872 543.283 987.939 538.15C987.239 533.017 985.139 528.817 981.639 525.55C978.372 522.05 973.239 520.3 966.239 520.3C955.739 520.3 948.972 523.683 945.939 530.45C942.906 537.217 941.389 547.133 941.389 560.2V689C941.389 702.3 943.139 712.217 946.639 718.75C950.139 725.283 956.672 728.55 966.239 728.55C976.039 728.55 982.339 725.283 985.139 718.75C987.939 711.983 989.339 702.067 989.339 689V661.35H1045.34V684.8C1045.34 711.867 1039.39 732.867 1027.49 747.8C1015.59 762.5 995.056 769.85 965.889 769.85ZM1080.6 482.5H1204.15V522.4H1138V597.65H1189.1V637.9H1138V726.8H1204.85V766H1080.6V482.5ZM1307.55 769.85C1281.42 769.85 1261.82 762.733 1248.75 748.5C1235.69 734.033 1228.57 711.75 1227.4 681.65L1277.1 673.25C1277.57 691.217 1280.02 704.517 1284.45 713.15C1289.12 721.55 1296 725.75 1305.1 725.75C1311.87 725.75 1316.77 723.65 1319.8 719.45C1322.84 715.017 1324.35 709.417 1324.35 702.65C1324.35 691.45 1321.79 682 1316.65 674.3C1311.75 666.367 1303.94 657.733 1293.2 648.4L1263.8 622.85C1252.14 613.05 1243.15 602.55 1236.85 591.35C1230.79 580.15 1227.75 566.733 1227.75 551.1C1227.75 528 1234.52 510.267 1248.05 497.9C1261.82 485.3 1280.72 479 1304.75 479C1330.42 479 1348.27 486.467 1358.3 501.4C1368.34 516.1 1374.05 534.883 1375.45 557.75L1325.4 565.1C1324.94 550.167 1323.19 539.2 1320.15 532.2C1317.35 524.967 1311.64 521.35 1303 521.35C1296.7 521.35 1291.8 523.8 1288.3 528.7C1284.8 533.367 1283.05 538.967 1283.05 545.5C1283.05 554.833 1285.04 562.767 1289 569.3C1293.2 575.6 1299.74 582.6 1308.6 590.3L1337.3 615.5C1350.84 627.4 1361.45 640 1369.15 653.3C1376.85 666.367 1380.7 681.767 1380.7 699.5C1380.7 713.033 1377.67 725.167 1371.6 735.9C1365.54 746.4 1356.9 754.683 1345.7 760.75C1334.74 766.817 1322.02 769.85 1307.55 769.85ZM793.061 908.439L757.568 872.939L755.447 875.061L788.379 908H647V911H788.379L755.447 943.939L757.568 946.061L793.061 910.561L794.121 909.5L793.061 908.439Z" fill="white"/>
</g>
<defs>
<clipPath id="clip0">
<rect width="1440" height="1440" fill="white"/>
</clipPath>
</defs>
</svg>
