<svg width="1440" height="762" viewBox="0 0 1440 762" fill="none" xmlns="http://www.w3.org/2000/svg">
<g clip-path="url(#clip0)">
<path fill-rule="evenodd" clip-rule="evenodd" d="M0 -316H1440V1547H0V-316ZM260.491 427.3C234.691 427.3 216.392 420.4 205.592 406.6C194.791 392.6 189.392 372.5 189.392 346.3V259.3C189.392 232.5 194.691 212.3 205.291 198.7C216.092 184.9 234.491 178 260.491 178C285.291 178 302.791 184.1 312.991 196.3C323.392 208.3 328.592 225.6 328.592 248.2V268.6H280.592V246.1C280.592 238.9 280.191 233.1 279.392 228.7C278.791 224.3 276.991 220.7 273.991 217.9C271.191 214.9 266.791 213.4 260.791 213.4C251.791 213.4 245.991 216.3 243.392 222.1C240.791 227.9 239.491 236.4 239.491 247.6V358C239.491 369.4 240.991 377.9 243.991 383.5C246.991 389.1 252.592 391.9 260.791 391.9C269.191 391.9 274.592 389.1 276.991 383.5C279.392 377.7 280.592 369.2 280.592 358V334.3H328.592V354.4C328.592 377.6 323.491 395.6 313.291 408.4C303.092 421 285.491 427.3 260.491 427.3ZM393.912 181H448.812L495.611 424H450.012L441.012 370.6H402.611L393.312 424H346.812L393.912 181ZM436.212 340L421.512 242.2L407.111 340H436.212ZM520.237 181H583.237C609.438 181 629.138 185.8 642.338 195.4C655.537 205 662.138 221.6 662.138 245.2C662.138 261 659.938 273.8 655.537 283.6C651.138 293.2 643.338 300.5 632.138 305.5L665.737 424H615.037L587.438 313.9H569.438V424H520.237V181ZM584.138 284.5C595.737 284.5 603.838 281.7 608.438 276.1C613.237 270.3 615.638 261.3 615.638 249.1C615.638 237.1 613.537 228.3 609.338 222.7C605.138 217.1 597.537 214.3 586.537 214.3H569.438V284.5H584.138ZM695.14 181H801.04V215.2H744.34V279.7H788.14V314.2H744.34V390.4H801.64V424H695.14V181ZM826.976 181H932.876V215.2H876.176V279.7H919.976V314.2H876.176V390.4H933.476V424H826.976V181ZM958.812 181H1021.81C1048.01 181 1067.71 185.8 1080.91 195.4C1094.11 205 1100.71 221.6 1100.71 245.2C1100.71 261 1098.51 273.8 1094.11 283.6C1089.71 293.2 1081.91 300.5 1070.71 305.5L1104.31 424H1053.61L1026.01 313.9H1008.01V424H958.812V181ZM1022.71 284.5C1034.31 284.5 1042.41 281.7 1047.01 276.1C1051.81 270.3 1054.21 261.3 1054.21 249.1C1054.21 237.1 1052.11 228.3 1047.91 222.7C1043.71 217.1 1036.11 214.3 1025.11 214.3H1008.01V284.5H1022.71ZM1195.54 427.3C1173.13 427.3 1156.33 421.2 1145.13 409C1133.94 396.6 1127.83 377.5 1126.83 351.7L1169.44 344.5C1169.83 359.9 1171.94 371.3 1175.74 378.7C1179.74 385.9 1185.63 389.5 1193.44 389.5C1199.24 389.5 1203.44 387.7 1206.04 384.1C1208.63 380.3 1209.94 375.5 1209.94 369.7C1209.94 360.1 1207.74 352 1203.33 345.4C1199.13 338.6 1192.44 331.2 1183.24 323.2L1158.04 301.3C1148.04 292.9 1140.33 283.9 1134.94 274.3C1129.74 264.7 1127.13 253.2 1127.13 239.8C1127.13 220 1132.94 204.8 1144.54 194.2C1156.33 183.4 1172.54 178 1193.13 178C1215.13 178 1230.44 184.4 1239.04 197.2C1247.63 209.8 1252.54 225.9 1253.74 245.5L1210.83 251.8C1210.44 239 1208.94 229.6 1206.33 223.6C1203.94 217.4 1199.04 214.3 1191.63 214.3C1186.24 214.3 1182.04 216.4 1179.04 220.6C1176.04 224.6 1174.54 229.4 1174.54 235C1174.54 243 1176.24 249.8 1179.63 255.4C1183.24 260.8 1188.83 266.8 1196.44 273.4L1221.04 295C1232.63 305.2 1241.74 316 1248.33 327.4C1254.94 338.6 1258.24 351.8 1258.24 367C1258.24 378.6 1255.63 389 1250.44 398.2C1245.24 407.2 1237.83 414.3 1228.24 419.5C1218.83 424.7 1207.94 427.3 1195.54 427.3ZM783.354 537.147L732.154 485.647L731.445 486.353L781.798 537H655V538H781.798L731.445 588.647L732.154 589.353L783.354 537.853L783.705 537.5L783.354 537.147Z" fill="white"/>
</g>
<defs>
<clipPath id="clip0">
<rect width="1440" height="762" fill="white"/>
</clipPath>
</defs>
</svg>
