<svg width="1440" height="762" viewBox="0 0 1440 762" fill="none" xmlns="http://www.w3.org/2000/svg">
<g clip-path="url(#clip0)">
<path fill-rule="evenodd" clip-rule="evenodd" d="M0 -316H1440V1547H0V-316ZM225.977 427.3C203.577 427.3 186.776 421.2 175.577 409C164.376 396.6 158.276 377.5 157.276 351.7L199.876 344.5C200.276 359.9 202.376 371.3 206.177 378.7C210.177 385.9 216.077 389.5 223.876 389.5C229.677 389.5 233.876 387.7 236.477 384.1C239.077 380.3 240.376 375.5 240.376 369.7C240.376 360.1 238.177 352 233.776 345.4C229.577 338.6 222.876 331.2 213.677 323.2L188.477 301.3C178.477 292.9 170.776 283.9 165.376 274.3C160.177 264.7 157.577 253.2 157.577 239.8C157.577 220 163.376 204.8 174.977 194.2C186.776 183.4 202.977 178 223.577 178C245.577 178 260.876 184.4 269.477 197.2C278.077 209.8 282.977 225.9 284.177 245.5L241.276 251.8C240.876 239 239.376 229.6 236.776 223.6C234.376 217.4 229.477 214.3 222.077 214.3C216.677 214.3 212.477 216.4 209.477 220.6C206.477 224.6 204.977 229.4 204.977 235C204.977 243 206.677 249.8 210.077 255.4C213.677 260.8 219.276 266.8 226.876 273.4L251.477 295C263.077 305.2 272.177 316 278.776 327.4C285.376 338.6 288.677 351.8 288.677 367C288.677 378.6 286.077 389 280.876 398.2C275.677 407.2 268.276 414.3 258.677 419.5C249.276 424.7 238.376 427.3 225.977 427.3ZM314.741 181H420.642V215.2H363.941V279.7H407.741V314.2H363.941V390.4H421.241V424H314.741V181ZM446.577 181H509.577C535.777 181 555.478 185.8 568.677 195.4C581.877 205 588.478 221.6 588.478 245.2C588.478 261 586.277 273.8 581.877 283.6C577.478 293.2 569.677 300.5 558.478 305.5L592.077 424H541.377L513.777 313.9H495.777V424H446.577V181ZM510.478 284.5C522.077 284.5 530.177 281.7 534.777 276.1C539.577 270.3 541.978 261.3 541.978 249.1C541.978 237.1 539.877 228.3 535.677 222.7C531.478 217.1 523.877 214.3 512.877 214.3H495.777V284.5H510.478ZM608.315 181H651.215L680.015 349L707.015 181H751.715L705.515 424H654.515L608.315 181ZM777.06 181H826.26V424H777.06V181ZM930.679 427.3C904.879 427.3 886.579 420.4 875.779 406.6C864.979 392.6 859.579 372.5 859.579 346.3V259.3C859.579 232.5 864.879 212.3 875.479 198.7C886.279 184.9 904.679 178 930.679 178C955.479 178 972.979 184.1 983.179 196.3C993.579 208.3 998.779 225.6 998.779 248.2V268.6H950.779V246.1C950.779 238.9 950.379 233.1 949.579 228.7C948.979 224.3 947.179 220.7 944.179 217.9C941.379 214.9 936.979 213.4 930.979 213.4C921.979 213.4 916.179 216.3 913.579 222.1C910.979 227.9 909.679 236.4 909.679 247.6V358C909.679 369.4 911.179 377.9 914.179 383.5C917.179 389.1 922.779 391.9 930.979 391.9C939.379 391.9 944.779 389.1 947.179 383.5C949.579 377.7 950.779 369.2 950.779 358V334.3H998.779V354.4C998.779 377.6 993.679 395.6 983.479 408.4C973.279 421 955.679 427.3 930.679 427.3ZM1029 181H1134.9V215.2H1078.2V279.7H1122V314.2H1078.2V390.4H1135.5V424H1029V181ZM1223.54 427.3C1201.14 427.3 1184.33 421.2 1173.14 409C1161.94 396.6 1155.83 377.5 1154.83 351.7L1197.44 344.5C1197.83 359.9 1199.94 371.3 1203.74 378.7C1207.74 385.9 1213.64 389.5 1221.44 389.5C1227.24 389.5 1231.44 387.7 1234.04 384.1C1236.64 380.3 1237.94 375.5 1237.94 369.7C1237.94 360.1 1235.74 352 1231.33 345.4C1227.14 338.6 1220.44 331.2 1211.24 323.2L1186.04 301.3C1176.04 292.9 1168.33 283.9 1162.94 274.3C1157.74 264.7 1155.14 253.2 1155.14 239.8C1155.14 220 1160.94 204.8 1172.54 194.2C1184.33 183.4 1200.54 178 1221.14 178C1243.14 178 1258.44 184.4 1267.04 197.2C1275.64 209.8 1280.54 225.9 1281.74 245.5L1238.83 251.8C1238.44 239 1236.94 229.6 1234.33 223.6C1231.94 217.4 1227.04 214.3 1219.64 214.3C1214.24 214.3 1210.04 216.4 1207.04 220.6C1204.04 224.6 1202.54 229.4 1202.54 235C1202.54 243 1204.24 249.8 1207.64 255.4C1211.24 260.8 1216.83 266.8 1224.44 273.4L1249.04 295C1260.64 305.2 1269.74 316 1276.33 327.4C1282.94 338.6 1286.24 351.8 1286.24 367C1286.24 378.6 1283.64 389 1278.44 398.2C1273.24 407.2 1265.83 414.3 1256.24 419.5C1246.83 424.7 1235.94 427.3 1223.54 427.3ZM783.354 537.147L732.155 485.647L731.445 486.353L781.798 537H655V538H781.798L731.445 588.647L732.155 589.353L783.354 537.853L783.705 537.5L783.354 537.147Z" fill="white"/>
</g>
<defs>
<clipPath id="clip0">
<rect width="1440" height="762" fill="white"/>
</clipPath>
</defs>
</svg>
