<svg width="1440" height="762" viewBox="0 0 1440 762" fill="none" xmlns="http://www.w3.org/2000/svg">
<g clip-path="url(#clip0)">
<path fill-rule="evenodd" clip-rule="evenodd" d="M0 -316H1440V1547H0V-316ZM369.758 181H411.458L428.558 329.5L449.857 181.3H483.158L505.357 328.9L522.458 181H563.558L532.357 424H490.058L466.658 270.1L444.158 424H401.258L369.758 181ZM657.81 427.3C632.009 427.3 613.609 420.6 602.609 407.2C591.609 393.6 586.109 373.7 586.109 347.5V256.9C586.109 230.7 591.609 211 602.609 197.8C613.609 184.6 632.009 178 657.81 178C683.409 178 701.709 184.7 712.709 198.1C723.909 211.3 729.509 230.9 729.509 256.9V347.8C729.509 373.8 723.909 393.6 712.709 407.2C701.709 420.6 683.409 427.3 657.81 427.3ZM657.81 391.9C666.209 391.9 671.81 389.1 674.609 383.5C677.609 377.7 679.109 369.8 679.109 359.8V244.9C679.109 234.9 677.609 227.2 674.609 221.8C671.81 216.2 666.209 213.4 657.81 213.4C649.409 213.4 643.709 216.2 640.709 221.8C637.909 227.2 636.509 234.9 636.509 244.9V359.8C636.509 370 637.909 377.9 640.709 383.5C643.509 389.1 649.209 391.9 657.81 391.9ZM762.561 181H825.561C851.761 181 871.461 185.8 884.661 195.4C897.86 205 904.461 221.6 904.461 245.2C904.461 261 902.261 273.8 897.86 283.6C893.461 293.2 885.661 300.5 874.461 305.5L908.061 424H857.36L829.761 313.9H811.761V424H762.561V181ZM826.461 284.5C838.061 284.5 846.161 281.7 850.761 276.1C855.561 270.3 857.961 261.3 857.961 249.1C857.961 237.1 855.86 228.3 851.661 222.7C847.461 217.1 839.86 214.3 828.86 214.3H811.761V284.5H826.461ZM937.463 181H986.663V283.6L1030.76 181H1078.76L1033.16 290.2L1082.36 424H1032.26L994.763 315.4L986.663 328.6V424H937.463V181ZM783.354 537.147L732.154 485.647L731.445 486.353L781.798 537H655V538H781.798L731.445 588.647L732.154 589.353L783.354 537.853L783.705 537.5L783.354 537.147Z" fill="white"/>
</g>
<defs>
<clipPath id="clip0">
<rect width="1440" height="762" fill="white"/>
</clipPath>
</defs>
</svg>
