<svg width="1440" height="1440" viewBox="0 0 1440 1440" fill="none" xmlns="http://www.w3.org/2000/svg">
<g clip-path="url(#clip0)">
<path fill-rule="evenodd" clip-rule="evenodd" d="M0 0H1440V1863H0V0ZM309.431 482.5H373.481L428.081 766H374.881L364.381 703.7H319.581L308.731 766H254.481L309.431 482.5ZM358.781 668L341.631 553.9L324.831 668H358.781ZM456.811 482.5H528.911C556.444 482.5 577.794 487.867 592.961 498.6C608.128 509.1 615.711 528.233 615.711 556C615.711 572.8 612.094 586.1 604.861 595.9C597.861 605.467 587.711 611.417 574.411 613.75C590.978 616.083 603.344 623.083 611.511 634.75C619.911 646.417 624.111 662.4 624.111 682.7C624.111 738.233 596.578 766 541.511 766H456.811V482.5ZM528.911 596.95C542.911 596.95 552.478 593.8 557.611 587.5C562.744 581.2 565.311 571.167 565.311 557.4C565.311 544.8 562.044 535.817 555.511 530.45C548.978 524.85 538.828 522.05 525.061 522.05H514.211V596.95H528.911ZM530.661 725.4C544.661 725.4 554.461 721.9 560.061 714.9C565.894 707.9 568.811 696.817 568.811 681.65C568.811 665.317 565.778 653.65 559.711 646.65C553.878 639.417 543.844 635.8 529.611 635.8H514.211V725.4H530.661ZM737.579 769.85C707.479 769.85 686.013 762.033 673.179 746.4C660.346 730.533 653.929 707.317 653.929 676.75V571.05C653.929 540.483 660.346 517.5 673.179 502.1C686.013 486.7 707.479 479 737.579 479C767.446 479 788.796 486.817 801.629 502.45C814.696 517.85 821.229 540.717 821.229 571.05V677.1C821.229 707.433 814.696 730.533 801.629 746.4C788.796 762.033 767.446 769.85 737.579 769.85ZM737.579 728.55C747.379 728.55 753.913 725.283 757.179 718.75C760.679 711.983 762.429 702.767 762.429 691.1V557.05C762.429 545.383 760.679 536.4 757.179 530.1C753.913 523.567 747.379 520.3 737.579 520.3C727.779 520.3 721.129 523.567 717.629 530.1C714.363 536.4 712.729 545.383 712.729 557.05V691.1C712.729 703 714.363 712.217 717.629 718.75C720.896 725.283 727.546 728.55 737.579 728.55ZM939.589 769.85C918.589 769.85 902.139 766.35 890.239 759.35C878.339 752.117 869.939 741.733 865.039 728.2C860.139 714.667 857.689 697.4 857.689 676.4V482.5H914.389V684.45C914.389 697.983 916.023 708.6 919.289 716.3C922.556 724 929.323 727.85 939.589 727.85C949.856 727.85 956.623 724 959.889 716.3C963.156 708.6 964.789 697.983 964.789 684.45V482.5H1021.84V676.4C1021.84 697.4 1019.39 714.667 1014.49 728.2C1009.59 741.733 1001.07 752.117 988.939 759.35C977.039 766.35 960.589 769.85 939.589 769.85ZM1088.73 525.2H1044.98V482.5H1189.88V525.2H1146.83V766H1088.73V525.2ZM793.061 908.439L757.568 872.939L755.447 875.061L788.379 908H647V911H788.379L755.447 943.939L757.568 946.061L793.061 910.561L794.121 909.5L793.061 908.439Z" fill="white"/>
</g>
<defs>
<clipPath id="clip0">
<rect width="1440" height="1440" fill="white"/>
</clipPath>
</defs>
</svg>
