<svg width="1440" height="762" viewBox="0 0 1440 762" fill="none" xmlns="http://www.w3.org/2000/svg">
<g clip-path="url(#clip0)">
<path fill-rule="evenodd" clip-rule="evenodd" d="M1440 -316H0V1547H1440V-316ZM247.61 363C257.316 373.573 271.877 378.86 291.29 378.86C302.037 378.86 311.483 376.607 319.63 372.1C327.95 367.593 334.363 361.44 338.87 353.64C343.377 345.667 345.63 336.653 345.63 326.6C345.63 313.427 342.77 301.987 337.05 292.28C331.33 282.4 323.443 273.04 313.39 264.2L292.07 245.48C285.483 239.76 280.63 234.56 277.51 229.88C274.563 225.027 273.09 219.133 273.09 212.2C273.09 207.347 274.39 203.187 276.99 199.72C279.59 196.08 283.23 194.26 287.91 194.26C294.323 194.26 298.57 196.947 300.65 202.32C302.903 207.52 304.203 215.667 304.55 226.76L341.73 221.3C340.69 204.313 336.443 190.36 328.99 179.44C321.536 168.347 308.277 162.8 289.21 162.8C271.357 162.8 257.316 167.48 247.09 176.84C237.037 186.027 232.01 199.2 232.01 216.36C232.01 227.973 234.263 237.94 238.77 246.26C243.45 254.58 250.123 262.38 258.79 269.66L280.63 288.64C288.603 295.573 294.41 301.987 298.05 307.88C301.863 313.6 303.77 320.62 303.77 328.94C303.77 333.967 302.643 338.127 300.39 341.42C298.137 344.54 294.497 346.1 289.47 346.1C282.71 346.1 277.597 342.98 274.13 336.74C270.837 330.327 269.017 320.447 268.67 307.1L231.75 313.34C232.617 335.7 237.903 352.253 247.61 363ZM459.999 165.4H368.219V376H460.519V346.88H410.859V280.84H448.819V250.94H410.859V195.04H459.999V165.4ZM537.077 165.4H482.477V376H525.117V280.58H540.717L564.637 376H608.577L579.457 273.3C589.164 268.967 595.924 262.64 599.737 254.32C603.551 245.827 605.457 234.733 605.457 221.04C605.457 200.587 599.737 186.2 588.297 177.88C576.857 169.56 559.784 165.4 537.077 165.4ZM558.917 247.82C554.931 252.673 547.911 255.1 537.857 255.1H525.117V194.26H539.937C549.471 194.26 556.057 196.687 559.697 201.54C563.337 206.393 565.157 214.02 565.157 224.42C565.157 234.993 563.077 242.793 558.917 247.82ZM659.83 165.4H622.65L662.69 376H706.89L746.93 165.4H708.19L684.79 311L659.83 165.4ZM811.536 165.4H768.896V376H811.536V165.4ZM854.452 360.92C863.812 372.88 879.672 378.86 902.032 378.86C923.699 378.86 938.952 373.4 947.792 362.48C956.632 351.387 961.052 335.787 961.052 315.68V298.26H919.452V318.8C919.452 328.507 918.412 335.873 916.332 340.9C914.252 345.753 909.572 348.18 902.292 348.18C895.185 348.18 890.332 345.753 887.732 340.9C885.132 336.047 883.832 328.68 883.832 318.8V223.12C883.832 213.413 884.959 206.047 887.212 201.02C889.465 195.993 894.492 193.48 902.292 193.48C907.492 193.48 911.305 194.78 913.732 197.38C916.332 199.807 917.892 202.927 918.412 206.74C919.105 210.553 919.452 215.58 919.452 221.82V241.32H961.052V223.64C961.052 204.053 956.545 189.06 947.532 178.66C938.692 168.087 923.525 162.8 902.032 162.8C879.499 162.8 863.552 168.78 854.192 180.74C845.005 192.527 840.412 210.033 840.412 233.26V308.66C840.412 331.367 845.092 348.787 854.452 360.92ZM1079.02 165.4H987.243V376H1079.54V346.88H1029.88V280.84H1067.84V250.94H1029.88V195.04H1079.02V165.4ZM1112.16 363C1121.87 373.573 1136.43 378.86 1155.84 378.86C1166.59 378.86 1176.03 376.607 1184.18 372.1C1192.5 367.593 1198.91 361.44 1203.42 353.64C1207.93 345.667 1210.18 336.653 1210.18 326.6C1210.18 313.427 1207.32 301.987 1201.6 292.28C1195.88 282.4 1187.99 273.04 1177.94 264.2L1156.62 245.48C1150.03 239.76 1145.18 234.56 1142.06 229.88C1139.11 225.027 1137.64 219.133 1137.64 212.2C1137.64 207.347 1138.94 203.187 1141.54 199.72C1144.14 196.08 1147.78 194.26 1152.46 194.26C1158.87 194.26 1163.12 196.947 1165.2 202.32C1167.45 207.52 1168.75 215.667 1169.1 226.76L1206.28 221.3C1205.24 204.313 1200.99 190.36 1193.54 179.44C1186.09 168.347 1172.83 162.8 1153.76 162.8C1135.91 162.8 1121.87 167.48 1111.64 176.84C1101.59 186.027 1096.56 199.2 1096.56 216.36C1096.56 227.973 1098.81 237.94 1103.32 246.26C1108 254.58 1114.67 262.38 1123.34 269.66L1145.18 288.64C1153.15 295.573 1158.96 301.987 1162.6 307.88C1166.41 313.6 1168.32 320.62 1168.32 328.94C1168.32 333.967 1167.19 338.127 1164.94 341.42C1162.69 344.54 1159.05 346.1 1154.02 346.1C1147.26 346.1 1142.15 342.98 1138.68 336.74C1135.39 330.327 1133.57 320.447 1133.22 307.1L1096.3 313.34C1097.17 335.7 1102.45 352.253 1112.16 363ZM809.664 437.943L826.064 454.443L827.115 455.5L826.064 456.557L809.664 473.057L807.536 470.943L821.394 457H758V454H821.394L807.536 440.057L809.664 437.943ZM610.465 445.867V463H620.52V460.598H613.266V445.867H610.465ZM624.105 461.477C625.246 462.648 626.824 463.234 628.84 463.234C629.723 463.234 630.508 463.168 631.195 463.035C631.883 462.902 632.562 462.676 633.234 462.355V460.117C632.477 460.453 631.766 460.695 631.102 460.844C630.445 460.984 629.734 461.055 628.969 461.055C627.805 461.055 626.902 460.719 626.262 460.047C625.621 459.367 625.281 458.398 625.242 457.141H633.879V455.652C633.879 453.832 633.383 452.402 632.391 451.363C631.398 450.324 630.047 449.805 628.336 449.805C626.492 449.805 625.043 450.41 623.988 451.621C622.934 452.832 622.406 454.496 622.406 456.613C622.406 458.676 622.973 460.297 624.105 461.477ZM626.227 452.723C626.758 452.168 627.461 451.891 628.336 451.891C629.211 451.891 629.898 452.168 630.398 452.723C630.898 453.27 631.156 454.078 631.172 455.148H625.289C625.391 454.086 625.703 453.277 626.227 452.723ZM644.566 461.195L645.117 463H647.086V454.27C647.086 452.73 646.664 451.602 645.82 450.883C644.984 450.164 643.742 449.805 642.094 449.805C641.352 449.805 640.562 449.902 639.727 450.098C638.891 450.285 638.121 450.562 637.418 450.93L638.309 452.898C638.871 452.633 639.457 452.402 640.066 452.207C640.676 452.012 641.312 451.914 641.977 451.914C642.789 451.914 643.387 452.121 643.77 452.535C644.16 452.941 644.355 453.559 644.355 454.387V455.078L642.117 455.148C640.086 455.211 638.574 455.582 637.582 456.262C636.59 456.941 636.094 457.949 636.094 459.285C636.094 460.543 636.449 461.516 637.16 462.203C637.879 462.891 638.875 463.234 640.148 463.234C641.141 463.234 641.953 463.094 642.586 462.812C643.219 462.523 643.848 461.984 644.473 461.195H644.566ZM643.418 460.293C642.816 460.848 642.016 461.125 641.016 461.125C640.328 461.125 639.812 460.969 639.469 460.656C639.125 460.336 638.953 459.887 638.953 459.309C638.953 458.512 639.246 457.922 639.832 457.539C640.426 457.148 641.371 456.93 642.668 456.883L644.332 456.812V457.938C644.332 458.945 644.027 459.73 643.418 460.293ZM658.875 449.922C658.516 449.844 658.059 449.805 657.504 449.805C656.707 449.805 655.961 450.031 655.266 450.484C654.578 450.938 654.02 451.551 653.59 452.324H653.449L653.086 450.039H650.93V463H653.684V456.227C653.684 455.078 654.023 454.145 654.703 453.426C655.391 452.707 656.285 452.348 657.387 452.348C657.809 452.348 658.215 452.395 658.605 452.488L658.875 449.922ZM669.926 463H672.691V454.551C672.691 451.387 671.137 449.805 668.027 449.805C667.152 449.805 666.355 449.973 665.637 450.309C664.918 450.645 664.363 451.121 663.973 451.738H663.832L663.445 450.039H661.289V463H664.043V456.543C664.043 454.926 664.312 453.773 664.852 453.086C665.391 452.398 666.242 452.055 667.406 452.055C668.281 452.055 668.918 452.301 669.316 452.793C669.723 453.285 669.926 454.031 669.926 455.031V463ZM685.488 448.691L690.457 463H692.93L698.074 448.715H698.168C698.149 448.89 698.127 449.264 698.102 449.836C698.086 450.207 698.069 450.661 698.051 451.199C698.012 452.566 697.992 453.676 697.992 454.527V463H700.688V445.867H696.727L691.828 459.496H691.758L687 445.867H683.051V463H685.594V454.668C685.594 452.809 685.527 450.816 685.395 448.691H685.488ZM714.773 461.453C715.859 460.266 716.402 458.613 716.402 456.496C716.402 454.449 715.855 452.824 714.762 451.621C713.668 450.41 712.184 449.805 710.309 449.805C708.348 449.805 706.828 450.395 705.75 451.574C704.672 452.754 704.133 454.395 704.133 456.496C704.133 457.848 704.383 459.035 704.883 460.059C705.383 461.082 706.098 461.867 707.027 462.414C707.957 462.961 709.027 463.234 710.238 463.234C712.176 463.234 713.688 462.641 714.773 461.453ZM710.285 460.984C708.074 460.984 706.969 459.488 706.969 456.496C706.969 455.066 707.227 453.969 707.742 453.203C708.266 452.438 709.105 452.055 710.262 452.055C712.465 452.055 713.566 453.535 713.566 456.496C713.566 459.488 712.473 460.984 710.285 460.984ZM727.523 449.922C727.164 449.844 726.707 449.805 726.152 449.805C725.355 449.805 724.609 450.031 723.914 450.484C723.227 450.938 722.668 451.551 722.238 452.324H722.098L721.734 450.039H719.578V463H722.332V456.227C722.332 455.078 722.672 454.145 723.352 453.426C724.039 452.707 724.934 452.348 726.035 452.348C726.457 452.348 726.863 452.395 727.254 452.488L727.523 449.922ZM730.863 461.477C732.004 462.648 733.582 463.234 735.598 463.234C736.48 463.234 737.266 463.168 737.953 463.035C738.641 462.902 739.32 462.676 739.992 462.355V460.117C739.234 460.453 738.523 460.695 737.859 460.844C737.203 460.984 736.492 461.055 735.727 461.055C734.562 461.055 733.66 460.719 733.02 460.047C732.379 459.367 732.039 458.398 732 457.141H740.637V455.652C740.637 453.832 740.141 452.402 739.148 451.363C738.156 450.324 736.805 449.805 735.094 449.805C733.25 449.805 731.801 450.41 730.746 451.621C729.691 452.832 729.164 454.496 729.164 456.613C729.164 458.676 729.73 460.297 730.863 461.477ZM732.984 452.723C733.516 452.168 734.219 451.891 735.094 451.891C735.969 451.891 736.656 452.168 737.156 452.723C737.656 453.27 737.914 454.078 737.93 455.148H732.047C732.148 454.086 732.461 453.277 732.984 452.723Z" fill="white"/>
</g>
<defs>
<clipPath id="clip0">
<rect width="1440" height="762" fill="white"/>
</clipPath>
</defs>
</svg>
