<svg width="1440" height="1440" viewBox="0 0 1440 1440" fill="none" xmlns="http://www.w3.org/2000/svg">
<g clip-path="url(#clip0)">
<path fill-rule="evenodd" clip-rule="evenodd" d="M1440 0H0V1863H1440V0ZM373.48 482.5H309.431L254.48 766H308.73L319.581 703.7H364.381L374.881 766H428.081L373.48 482.5ZM341.631 553.9L358.781 668H324.831L341.631 553.9ZM528.911 482.5H456.811V766H541.511C596.577 766 624.111 738.233 624.111 682.7C624.111 662.4 619.911 646.417 611.511 634.75C603.345 623.083 590.978 616.083 574.411 613.75C587.711 611.417 597.861 605.467 604.861 595.9C612.095 586.1 615.711 572.8 615.711 556C615.711 528.233 608.128 509.1 592.961 498.6C577.794 487.866 556.444 482.5 528.911 482.5ZM557.611 587.5C552.478 593.8 542.911 596.95 528.911 596.95H514.211V522.05H525.061C538.827 522.05 548.978 524.85 555.511 530.45C562.044 535.816 565.311 544.8 565.311 557.4C565.311 571.167 562.744 581.2 557.611 587.5ZM560.061 714.9C554.461 721.9 544.661 725.4 530.661 725.4H514.211V635.8H529.611C543.845 635.8 553.878 639.417 559.711 646.65C565.777 653.65 568.811 665.316 568.811 681.65C568.811 696.816 565.895 707.9 560.061 714.9ZM673.18 746.4C686.013 762.033 707.479 769.85 737.579 769.85C767.446 769.85 788.796 762.033 801.629 746.4C814.696 730.533 821.229 707.434 821.229 677.1V571.05C821.229 540.717 814.696 517.85 801.629 502.45C788.796 486.816 767.446 479 737.579 479C707.479 479 686.013 486.7 673.18 502.1C660.346 517.5 653.93 540.483 653.93 571.05V676.75C653.93 707.316 660.346 730.533 673.18 746.4ZM757.18 718.75C753.913 725.283 747.379 728.55 737.579 728.55C727.546 728.55 720.896 725.283 717.629 718.75C714.362 712.217 712.729 703 712.729 691.1V557.05C712.729 545.384 714.362 536.4 717.629 530.1C721.129 523.566 727.779 520.3 737.579 520.3C747.379 520.3 753.913 523.566 757.18 530.1C760.68 536.4 762.43 545.384 762.43 557.05V691.1C762.43 702.767 760.68 711.983 757.18 718.75ZM890.239 759.35C902.14 766.35 918.59 769.85 939.59 769.85C960.59 769.85 977.039 766.35 988.939 759.35C1001.07 752.116 1009.59 741.733 1014.49 728.2C1019.39 714.667 1021.84 697.4 1021.84 676.4V482.5H964.789V684.45C964.789 697.983 963.156 708.6 959.89 716.3C956.623 724 949.856 727.85 939.59 727.85C929.323 727.85 922.556 724 919.289 716.3C916.022 708.6 914.39 697.983 914.39 684.45V482.5H857.689V676.4C857.689 697.4 860.14 714.667 865.039 728.2C869.939 741.733 878.34 752.116 890.239 759.35ZM1044.98 525.2H1088.73V766H1146.83V525.2H1189.88V482.5H1044.98V525.2Z" fill="white"/>
<path d="M553 993.5H885M885 993.5L752.2 860M885 993.5L752.2 1127" stroke="black" stroke-width="2"/>
</g>
<defs>
<clipPath id="clip0">
<rect width="1440" height="1440" fill="white"/>
</clipPath>
</defs>
</svg>
