<svg width="1440" height="1440" viewBox="0 0 1440 1440" fill="none" xmlns="http://www.w3.org/2000/svg">
<g clip-path="url(#clip0)">
<path fill-rule="evenodd" clip-rule="evenodd" d="M0 0H1440V1863H0V0ZM311.221 482.5H359.871L379.821 655.75L404.671 482.85H443.521L469.421 655.05L489.371 482.5H537.321L500.921 766H451.571L424.271 586.45L398.021 766H347.971L311.221 482.5ZM647.281 769.85C617.182 769.85 595.715 762.033 582.882 746.4C570.048 730.533 563.631 707.316 563.631 676.75V571.05C563.631 540.483 570.048 517.5 582.882 502.1C595.715 486.7 617.182 479 647.281 479C677.148 479 698.498 486.816 711.331 502.45C724.398 517.85 730.932 540.717 730.932 571.05V677.1C730.932 707.434 724.398 730.533 711.331 746.4C698.498 762.033 677.148 769.85 647.281 769.85ZM647.281 728.55C657.081 728.55 663.615 725.283 666.882 718.75C670.382 711.983 672.132 702.767 672.132 691.1V557.05C672.132 545.384 670.382 536.4 666.882 530.1C663.615 523.566 657.081 520.3 647.281 520.3C637.481 520.3 630.831 523.566 627.331 530.1C624.064 536.4 622.432 545.384 622.432 557.05V691.1C622.432 703 624.064 712.217 627.331 718.75C630.598 725.283 637.248 728.55 647.281 728.55ZM769.491 482.5H842.991C873.559 482.5 896.542 488.1 911.941 499.3C927.342 510.5 935.042 529.866 935.042 557.4C935.042 575.833 932.475 590.767 927.342 602.2C922.208 613.4 913.108 621.917 900.042 627.75L939.241 766H880.092L847.892 637.55H826.892V766H769.491V482.5ZM844.042 603.25C857.575 603.25 867.025 599.983 872.392 593.45C877.991 586.684 880.792 576.184 880.792 561.95C880.792 547.95 878.342 537.684 873.441 531.15C868.542 524.616 859.675 521.35 846.842 521.35H826.892V603.25H844.042ZM973.544 482.5H1030.94V602.2L1082.39 482.5H1138.39L1085.19 609.9L1142.59 766H1084.14L1040.39 639.3L1030.94 654.7V766H973.544V482.5ZM885.709 992.795L752.909 859.295L751.491 860.705L882.595 992.5H553V994.5H882.595L751.491 1126.29L752.909 1127.71L885.709 994.205L886.41 993.5L885.709 992.795Z" fill="white"/>
</g>
<defs>
<clipPath id="clip0">
<rect width="1440" height="1440" fill="white"/>
</clipPath>
</defs>
</svg>
