<svg width="1440" height="762" viewBox="0 0 1440 762" fill="none" xmlns="http://www.w3.org/2000/svg">
<g clip-path="url(#clip0)">
<path fill-rule="evenodd" clip-rule="evenodd" d="M0 -316H1440V1547H0V-316ZM368.274 181H423.174L469.974 424H424.374L415.374 370.6H376.974L367.674 424H321.174L368.274 181ZM410.574 340L395.874 242.2L381.474 340H410.574ZM494.6 181H556.399C580 181 598.3 185.6 611.3 194.8C624.3 203.8 630.8 220.2 630.8 244C630.8 258.4 627.7 269.8 621.5 278.2C615.5 286.4 606.8 291.5 595.399 293.5C609.6 295.5 620.2 301.5 627.2 311.5C634.399 321.5 638 335.2 638 352.6C638 400.2 614.399 424 567.2 424H494.6V181ZM556.399 279.1C568.399 279.1 576.6 276.4 581 271C585.399 265.6 587.6 257 587.6 245.2C587.6 234.4 584.8 226.7 579.2 222.1C573.6 217.3 564.899 214.9 553.1 214.9H543.8V279.1H556.399ZM557.899 389.2C569.899 389.2 578.3 386.2 583.1 380.2C588.1 374.2 590.6 364.7 590.6 351.7C590.6 337.7 588 327.7 582.8 321.7C577.8 315.5 569.2 312.4 557 312.4H543.8V389.2H557.899ZM735.259 427.3C709.458 427.3 691.059 420.6 680.059 407.2C669.059 393.6 663.559 373.7 663.559 347.5V256.9C663.559 230.7 669.059 211 680.059 197.8C691.059 184.6 709.458 178 735.259 178C760.858 178 779.158 184.7 790.158 198.1C801.358 211.3 806.958 230.9 806.958 256.9V347.8C806.958 373.8 801.358 393.6 790.158 407.2C779.158 420.6 760.858 427.3 735.259 427.3ZM735.259 391.9C743.658 391.9 749.259 389.1 752.059 383.5C755.059 377.7 756.559 369.8 756.559 359.8V244.9C756.559 234.9 755.059 227.2 752.059 221.8C749.259 216.2 743.658 213.4 735.259 213.4C726.858 213.4 721.158 216.2 718.158 221.8C715.358 227.2 713.958 234.9 713.958 244.9V359.8C713.958 370 715.358 377.9 718.158 383.5C720.958 389.1 726.658 391.9 735.259 391.9ZM908.41 427.3C890.41 427.3 876.31 424.3 866.11 418.3C855.91 412.1 848.71 403.2 844.51 391.6C840.31 380 838.21 365.2 838.21 347.2V181H886.81V354.1C886.81 365.7 888.21 374.8 891.01 381.4C893.81 388 899.61 391.3 908.41 391.3C917.21 391.3 923.01 388 925.81 381.4C928.61 374.8 930.01 365.7 930.01 354.1V181H978.91V347.2C978.91 365.2 976.81 380 972.61 391.6C968.41 403.2 961.11 412.1 950.71 418.3C940.51 424.3 926.41 427.3 908.41 427.3ZM1036.25 217.6H998.747V181H1122.95V217.6H1086.05V424H1036.25V217.6ZM783.354 537.147L732.154 485.647L731.445 486.353L781.798 537H655V538H781.798L731.445 588.647L732.154 589.353L783.354 537.853L783.705 537.5L783.354 537.147Z" fill="white"/>
</g>
<defs>
<clipPath id="clip0">
<rect width="1440" height="762" fill="white"/>
</clipPath>
</defs>
</svg>
