<svg width="1440" height="1440" viewBox="0 0 1440 1440" fill="none" xmlns="http://www.w3.org/2000/svg">
<g clip-path="url(#clip0)">
<path fill-rule="evenodd" clip-rule="evenodd" d="M0 0H1440V1863H0V0ZM183.503 769.85C153.403 769.85 132.053 761.8 119.453 745.7C106.853 729.367 100.553 705.917 100.553 675.35V573.85C100.553 542.583 106.737 519.017 119.103 503.15C131.703 487.05 153.17 479 183.503 479C212.437 479 232.853 486.117 244.753 500.35C256.887 514.35 262.953 534.533 262.953 560.9V584.7H206.953V558.45C206.953 550.05 206.487 543.283 205.553 538.15C204.853 533.017 202.753 528.817 199.253 525.55C195.987 522.05 190.853 520.3 183.853 520.3C173.353 520.3 166.587 523.683 163.553 530.45C160.52 537.217 159.003 547.133 159.003 560.2V689C159.003 702.3 160.753 712.217 164.253 718.75C167.753 725.283 174.287 728.55 183.853 728.55C193.653 728.55 199.953 725.283 202.753 718.75C205.553 711.983 206.953 702.067 206.953 689V661.35H262.953V684.8C262.953 711.867 257.003 732.867 245.103 747.8C233.203 762.5 212.67 769.85 183.503 769.85ZM339.16 482.5H403.21L457.81 766H404.61L394.11 703.7H349.31L338.46 766H284.21L339.16 482.5ZM388.51 668L371.36 553.9L354.56 668H388.51ZM486.54 482.5H560.04C590.607 482.5 613.59 488.1 628.99 499.3C644.39 510.5 652.09 529.867 652.09 557.4C652.09 575.833 649.524 590.767 644.39 602.2C639.257 613.4 630.157 621.917 617.09 627.75L656.29 766H597.14L564.94 637.55H543.94V766H486.54V482.5ZM561.09 603.25C574.624 603.25 584.074 599.983 589.44 593.45C595.04 586.683 597.84 576.183 597.84 561.95C597.84 547.95 595.39 537.683 590.49 531.15C585.59 524.617 576.724 521.35 563.89 521.35H543.94V603.25H561.09ZM690.593 482.5H814.143V522.4H747.993V597.65H799.093V637.9H747.993V726.8H814.843V766H690.593V482.5ZM844.402 482.5H967.952V522.4H901.802V597.65H952.902V637.9H901.802V726.8H968.652V766H844.402V482.5ZM998.21 482.5H1071.71C1102.28 482.5 1125.26 488.1 1140.66 499.3C1156.06 510.5 1163.76 529.867 1163.76 557.4C1163.76 575.833 1161.19 590.767 1156.06 602.2C1150.93 613.4 1141.83 621.917 1128.76 627.75L1167.96 766H1108.81L1076.61 637.55H1055.61V766H998.21V482.5ZM1072.76 603.25C1086.29 603.25 1095.74 599.983 1101.11 593.45C1106.71 586.683 1109.51 576.183 1109.51 561.95C1109.51 547.95 1107.06 537.683 1102.16 531.15C1097.26 524.617 1088.39 521.35 1075.56 521.35H1055.61V603.25H1072.76ZM1274.39 769.85C1248.25 769.85 1228.65 762.733 1215.59 748.5C1202.52 734.033 1195.4 711.75 1194.24 681.65L1243.94 673.25C1244.4 691.217 1246.85 704.517 1251.29 713.15C1255.95 721.55 1262.84 725.75 1271.94 725.75C1278.7 725.75 1283.6 723.65 1286.64 719.45C1289.67 715.017 1291.19 709.417 1291.19 702.65C1291.19 691.45 1288.62 682 1283.49 674.3C1278.59 666.367 1270.77 657.733 1260.04 648.4L1230.64 622.85C1218.97 613.05 1209.99 602.55 1203.69 591.35C1197.62 580.15 1194.59 566.733 1194.59 551.1C1194.59 528 1201.35 510.267 1214.89 497.9C1228.65 485.3 1247.55 479 1271.59 479C1297.25 479 1315.1 486.467 1325.14 501.4C1335.17 516.1 1340.89 534.883 1342.29 557.75L1292.24 565.1C1291.77 550.167 1290.02 539.2 1286.99 532.2C1284.19 524.967 1278.47 521.35 1269.84 521.35C1263.54 521.35 1258.64 523.8 1255.14 528.7C1251.64 533.367 1249.89 538.967 1249.89 545.5C1249.89 554.833 1251.87 562.767 1255.84 569.3C1260.04 575.6 1266.57 582.6 1275.44 590.3L1304.14 615.5C1317.67 627.4 1328.29 640 1335.99 653.3C1343.69 666.367 1347.54 681.767 1347.54 699.5C1347.54 713.033 1344.5 725.167 1338.44 735.9C1332.37 746.4 1323.74 754.683 1312.54 760.75C1301.57 766.817 1288.85 769.85 1274.39 769.85ZM793.061 908.439L757.568 872.939L755.447 875.061L788.379 908H647V911H788.379L755.447 943.939L757.568 946.061L793.061 910.561L794.121 909.5L793.061 908.439Z" fill="white"/>
</g>
<defs>
<clipPath id="clip0">
<rect width="1440" height="1440" fill="white"/>
</clipPath>
</defs>
</svg>
