<svg width="1440" height="762" viewBox="0 0 1440 762" fill="none" xmlns="http://www.w3.org/2000/svg">
<g clip-path="url(#clip0)">
<path fill-rule="evenodd" clip-rule="evenodd" d="M1440 -316H0V1547H1440V-316ZM289.972 155.4H242.392L201.572 366H241.872L249.932 319.72H283.212L291.012 366H330.532L289.972 155.4ZM266.312 208.44L279.052 293.2H253.832L266.312 208.44ZM405.435 155.4H351.875V366H414.795C455.701 366 476.155 345.373 476.155 304.12C476.155 289.04 473.035 277.167 466.795 268.5C460.728 259.833 451.541 254.633 439.235 252.9C449.115 251.167 456.655 246.747 461.855 239.64C467.228 232.36 469.915 222.48 469.915 210C469.915 189.373 464.281 175.16 453.015 167.36C441.748 159.387 425.888 155.4 405.435 155.4ZM426.755 233.4C422.941 238.08 415.835 240.42 405.435 240.42H394.515V184.78H402.575C412.801 184.78 420.341 186.86 425.195 191.02C430.048 195.007 432.475 201.68 432.475 211.04C432.475 221.267 430.568 228.72 426.755 233.4ZM428.575 328.04C424.415 333.24 417.135 335.84 406.735 335.84H394.515V269.28H405.955C416.528 269.28 423.981 271.967 428.315 277.34C432.821 282.54 435.075 291.207 435.075 303.34C435.075 314.607 432.908 322.84 428.575 328.04ZM512.605 351.44C522.139 363.053 538.085 368.86 560.445 368.86C582.632 368.86 598.492 363.053 608.025 351.44C617.732 339.653 622.585 322.493 622.585 299.96V221.18C622.585 198.647 617.732 181.66 608.025 170.22C598.492 158.607 582.632 152.8 560.445 152.8C538.085 152.8 522.139 158.52 512.605 169.96C503.072 181.4 498.305 198.473 498.305 221.18V299.7C498.305 322.407 503.072 339.653 512.605 351.44ZM575.005 330.9C572.579 335.753 567.725 338.18 560.445 338.18C552.992 338.18 548.052 335.753 545.625 330.9C543.199 326.047 541.985 319.2 541.985 310.36V210.78C541.985 202.113 543.199 195.44 545.625 190.76C548.225 185.907 553.165 183.48 560.445 183.48C567.725 183.48 572.579 185.907 575.005 190.76C577.605 195.44 578.905 202.113 578.905 210.78V310.36C578.905 319.027 577.605 325.873 575.005 330.9ZM673.85 361.06C682.69 366.26 694.91 368.86 710.51 368.86C726.11 368.86 738.33 366.26 747.17 361.06C756.183 355.687 762.51 347.973 766.15 337.92C769.79 327.867 771.61 315.04 771.61 299.44V155.4H729.23V305.42C729.23 315.473 728.017 323.36 725.59 329.08C723.163 334.8 718.137 337.66 710.51 337.66C702.883 337.66 697.857 334.8 695.43 329.08C693.003 323.36 691.79 315.473 691.79 305.42V155.4H649.67V299.44C649.67 315.04 651.49 327.867 655.13 337.92C658.77 347.973 665.01 355.687 673.85 361.06ZM788.803 187.12H821.303V366H864.463V187.12H896.443V155.4H788.803V187.12ZM1003.17 361.06C1012.01 366.26 1024.23 368.86 1039.83 368.86C1055.43 368.86 1067.65 366.26 1076.49 361.06C1085.5 355.687 1091.83 347.973 1095.47 337.92C1099.11 327.867 1100.93 315.04 1100.93 299.44V155.4H1058.55V305.42C1058.55 315.473 1057.33 323.36 1054.91 329.08C1052.48 334.8 1047.45 337.66 1039.83 337.66C1032.2 337.66 1027.17 334.8 1024.75 329.08C1022.32 323.36 1021.11 315.473 1021.11 305.42V155.4H978.987V299.44C978.987 315.04 980.807 327.867 984.447 337.92C988.087 347.973 994.327 355.687 1003.17 361.06ZM1141.52 353C1151.23 363.573 1165.79 368.86 1185.2 368.86C1195.95 368.86 1205.39 366.607 1213.54 362.1C1221.86 357.593 1228.27 351.44 1232.78 343.64C1237.29 335.667 1239.54 326.653 1239.54 316.6C1239.54 303.427 1236.68 291.987 1230.96 282.28C1225.24 272.4 1217.35 263.04 1207.3 254.2L1185.98 235.48C1179.39 229.76 1174.54 224.56 1171.42 219.88C1168.47 215.027 1167 209.133 1167 202.2C1167 197.347 1168.3 193.187 1170.9 189.72C1173.5 186.08 1177.14 184.26 1181.82 184.26C1188.23 184.26 1192.48 186.947 1194.56 192.32C1196.81 197.52 1198.11 205.667 1198.46 216.76L1235.64 211.3C1234.6 194.313 1230.35 180.36 1222.9 169.44C1215.45 158.347 1202.19 152.8 1183.12 152.8C1165.27 152.8 1151.23 157.48 1141 166.84C1130.95 176.027 1125.92 189.2 1125.92 206.36C1125.92 217.973 1128.17 227.94 1132.68 236.26C1137.36 244.58 1144.03 252.38 1152.7 259.66L1174.54 278.64C1182.51 285.573 1188.32 291.987 1191.96 297.88C1195.77 303.6 1197.68 310.62 1197.68 318.94C1197.68 323.967 1196.55 328.127 1194.3 331.42C1192.05 334.54 1188.41 336.1 1183.38 336.1C1176.62 336.1 1171.51 332.98 1168.04 326.74C1164.75 320.327 1162.93 310.447 1162.58 297.1L1125.66 303.34C1126.53 325.7 1131.81 342.253 1141.52 353ZM809.664 437.943L826.064 454.443L827.115 455.5L826.064 456.557L809.664 473.057L807.536 470.943L821.394 457H758V454H821.394L807.536 440.057L809.664 437.943ZM610.465 445.867V463H620.52V460.598H613.266V445.867H610.465ZM624.105 461.477C625.246 462.648 626.824 463.234 628.84 463.234C629.723 463.234 630.508 463.168 631.195 463.035C631.883 462.902 632.562 462.676 633.234 462.355V460.117C632.477 460.453 631.766 460.695 631.102 460.844C630.445 460.984 629.734 461.055 628.969 461.055C627.805 461.055 626.902 460.719 626.262 460.047C625.621 459.367 625.281 458.398 625.242 457.141H633.879V455.652C633.879 453.832 633.383 452.402 632.391 451.363C631.398 450.324 630.047 449.805 628.336 449.805C626.492 449.805 625.043 450.41 623.988 451.621C622.934 452.832 622.406 454.496 622.406 456.613C622.406 458.676 622.973 460.297 624.105 461.477ZM626.227 452.723C626.758 452.168 627.461 451.891 628.336 451.891C629.211 451.891 629.898 452.168 630.398 452.723C630.898 453.27 631.156 454.078 631.172 455.148H625.289C625.391 454.086 625.703 453.277 626.227 452.723ZM644.566 461.195L645.117 463H647.086V454.27C647.086 452.73 646.664 451.602 645.82 450.883C644.984 450.164 643.742 449.805 642.094 449.805C641.352 449.805 640.562 449.902 639.727 450.098C638.891 450.285 638.121 450.562 637.418 450.93L638.309 452.898C638.871 452.633 639.457 452.402 640.066 452.207C640.676 452.012 641.312 451.914 641.977 451.914C642.789 451.914 643.387 452.121 643.77 452.535C644.16 452.941 644.355 453.559 644.355 454.387V455.078L642.117 455.148C640.086 455.211 638.574 455.582 637.582 456.262C636.59 456.941 636.094 457.949 636.094 459.285C636.094 460.543 636.449 461.516 637.16 462.203C637.879 462.891 638.875 463.234 640.148 463.234C641.141 463.234 641.953 463.094 642.586 462.812C643.219 462.523 643.848 461.984 644.473 461.195H644.566ZM643.418 460.293C642.816 460.848 642.016 461.125 641.016 461.125C640.328 461.125 639.812 460.969 639.469 460.656C639.125 460.336 638.953 459.887 638.953 459.309C638.953 458.512 639.246 457.922 639.832 457.539C640.426 457.148 641.371 456.93 642.668 456.883L644.332 456.812V457.938C644.332 458.945 644.027 459.73 643.418 460.293ZM658.875 449.922C658.516 449.844 658.059 449.805 657.504 449.805C656.707 449.805 655.961 450.031 655.266 450.484C654.578 450.938 654.02 451.551 653.59 452.324H653.449L653.086 450.039H650.93V463H653.684V456.227C653.684 455.078 654.023 454.145 654.703 453.426C655.391 452.707 656.285 452.348 657.387 452.348C657.809 452.348 658.215 452.395 658.605 452.488L658.875 449.922ZM669.926 463H672.691V454.551C672.691 451.387 671.137 449.805 668.027 449.805C667.152 449.805 666.355 449.973 665.637 450.309C664.918 450.645 664.363 451.121 663.973 451.738H663.832L663.445 450.039H661.289V463H664.043V456.543C664.043 454.926 664.312 453.773 664.852 453.086C665.391 452.398 666.242 452.055 667.406 452.055C668.281 452.055 668.918 452.301 669.316 452.793C669.723 453.285 669.926 454.031 669.926 455.031V463ZM685.488 448.691L690.457 463H692.93L698.074 448.715H698.168C698.149 448.89 698.127 449.264 698.102 449.836C698.086 450.207 698.069 450.661 698.051 451.199C698.012 452.566 697.992 453.676 697.992 454.527V463H700.688V445.867H696.727L691.828 459.496H691.758L687 445.867H683.051V463H685.594V454.668C685.594 452.809 685.527 450.816 685.395 448.691H685.488ZM714.773 461.453C715.859 460.266 716.402 458.613 716.402 456.496C716.402 454.449 715.855 452.824 714.762 451.621C713.668 450.41 712.184 449.805 710.309 449.805C708.348 449.805 706.828 450.395 705.75 451.574C704.672 452.754 704.133 454.395 704.133 456.496C704.133 457.848 704.383 459.035 704.883 460.059C705.383 461.082 706.098 461.867 707.027 462.414C707.957 462.961 709.027 463.234 710.238 463.234C712.176 463.234 713.688 462.641 714.773 461.453ZM710.285 460.984C708.074 460.984 706.969 459.488 706.969 456.496C706.969 455.066 707.227 453.969 707.742 453.203C708.266 452.438 709.105 452.055 710.262 452.055C712.465 452.055 713.566 453.535 713.566 456.496C713.566 459.488 712.473 460.984 710.285 460.984ZM727.523 449.922C727.164 449.844 726.707 449.805 726.152 449.805C725.355 449.805 724.609 450.031 723.914 450.484C723.227 450.938 722.668 451.551 722.238 452.324H722.098L721.734 450.039H719.578V463H722.332V456.227C722.332 455.078 722.672 454.145 723.352 453.426C724.039 452.707 724.934 452.348 726.035 452.348C726.457 452.348 726.863 452.395 727.254 452.488L727.523 449.922ZM730.863 461.477C732.004 462.648 733.582 463.234 735.598 463.234C736.48 463.234 737.266 463.168 737.953 463.035C738.641 462.902 739.32 462.676 739.992 462.355V460.117C739.234 460.453 738.523 460.695 737.859 460.844C737.203 460.984 736.492 461.055 735.727 461.055C734.562 461.055 733.66 460.719 733.02 460.047C732.379 459.367 732.039 458.398 732 457.141H740.637V455.652C740.637 453.832 740.141 452.402 739.148 451.363C738.156 450.324 736.805 449.805 735.094 449.805C733.25 449.805 731.801 450.41 730.746 451.621C729.691 452.832 729.164 454.496 729.164 456.613C729.164 458.676 729.73 460.297 730.863 461.477ZM732.984 452.723C733.516 452.168 734.219 451.891 735.094 451.891C735.969 451.891 736.656 452.168 737.156 452.723C737.656 453.27 737.914 454.078 737.93 455.148H732.047C732.148 454.086 732.461 453.277 732.984 452.723Z" fill="white"/>
</g>
<defs>
<clipPath id="clip0">
<rect width="1440" height="762" fill="white"/>
</clipPath>
</defs>
</svg>
