<svg width="1440" height="762" viewBox="0 0 1440 762" fill="none" xmlns="http://www.w3.org/2000/svg">
<g clip-path="url(#clip0)">
<path fill-rule="evenodd" clip-rule="evenodd" d="M1440 -316H0V1547H1440V-316ZM177.807 351.44C187.34 363.053 203.287 368.86 225.647 368.86C247.833 368.86 263.693 363.053 273.227 351.44C282.933 339.653 287.787 322.493 287.787 299.96V221.18C287.787 198.647 282.933 181.66 273.227 170.22C263.693 158.607 247.833 152.8 225.647 152.8C203.287 152.8 187.34 158.52 177.807 169.96C168.273 181.4 163.507 198.473 163.507 221.18V299.7C163.507 322.407 168.273 339.653 177.807 351.44ZM240.207 330.9C237.78 335.753 232.927 338.18 225.647 338.18C218.193 338.18 213.253 335.753 210.827 330.9C208.4 326.047 207.187 319.2 207.187 310.36V210.78C207.187 202.113 208.4 195.44 210.827 190.76C213.427 185.907 218.367 183.48 225.647 183.48C232.927 183.48 237.78 185.907 240.207 190.76C242.807 195.44 244.107 202.113 244.107 210.78V310.36C244.107 319.027 242.807 325.873 240.207 330.9ZM339.051 361.06C347.891 366.26 360.111 368.86 375.711 368.86C391.311 368.86 403.531 366.26 412.371 361.06C421.385 355.687 427.711 347.973 431.351 337.92C434.991 327.867 436.811 315.04 436.811 299.44V155.4H394.431V305.42C394.431 315.473 393.218 323.36 390.791 329.08C388.365 334.8 383.338 337.66 375.711 337.66C368.085 337.66 363.058 334.8 360.631 329.08C358.205 323.36 356.991 315.473 356.991 305.42V155.4H314.871V299.44C314.871 315.04 316.691 327.867 320.331 337.92C323.971 347.973 330.211 355.687 339.051 361.06ZM521.344 155.4H466.744V366H509.384V270.58H524.984L548.904 366H592.844L563.724 263.3C573.43 258.967 580.19 252.64 584.004 244.32C587.817 235.827 589.724 224.733 589.724 211.04C589.724 190.587 584.004 176.2 572.564 167.88C561.124 159.56 544.05 155.4 521.344 155.4ZM543.184 237.82C539.197 242.673 532.177 245.1 522.124 245.1H509.384V184.26H524.204C533.737 184.26 540.324 186.687 543.964 191.54C547.604 196.393 549.424 204.02 549.424 214.42C549.424 224.993 547.344 232.793 543.184 237.82ZM711.146 155.4H675.006L702.306 366H739.486L758.986 232.62L779.266 366H815.926L842.966 155.4H807.346L792.526 283.58L773.286 155.66H744.426L725.966 284.1L711.146 155.4ZM876.81 351.44C886.344 363.053 902.291 368.86 924.651 368.86C946.837 368.86 962.697 363.053 972.231 351.44C981.937 339.653 986.791 322.493 986.791 299.96V221.18C986.791 198.647 981.937 181.66 972.231 170.22C962.697 158.607 946.837 152.8 924.651 152.8C902.291 152.8 886.344 158.52 876.81 169.96C867.277 181.4 862.51 198.473 862.51 221.18V299.7C862.51 322.407 867.277 339.653 876.81 351.44ZM939.211 330.9C936.784 335.753 931.931 338.18 924.651 338.18C917.197 338.18 912.257 335.753 909.831 330.9C907.404 326.047 906.19 319.2 906.19 310.36V210.78C906.19 202.113 907.404 195.44 909.831 190.76C912.43 185.907 917.37 183.48 924.651 183.48C931.931 183.48 936.784 185.907 939.211 190.76C941.81 195.44 943.111 202.113 943.111 210.78V310.36C943.111 319.027 941.81 325.873 939.211 330.9ZM1070.04 155.4H1015.44V366H1058.08V270.58H1073.68L1097.6 366H1141.54L1112.42 263.3C1122.12 258.967 1128.88 252.64 1132.7 244.32C1136.51 235.827 1138.42 224.733 1138.42 211.04C1138.42 190.587 1132.7 176.2 1121.26 167.88C1109.82 159.56 1092.74 155.4 1070.04 155.4ZM1091.88 237.82C1087.89 242.673 1080.87 245.1 1070.82 245.1H1058.08V184.26H1072.9C1082.43 184.26 1089.02 186.687 1092.66 191.54C1096.3 196.393 1098.12 204.02 1098.12 214.42C1098.12 224.993 1096.04 232.793 1091.88 237.82ZM1209.66 155.4H1167.02V366H1209.66V283.32L1216.68 271.88L1249.18 366H1292.6L1249.96 250.04L1289.48 155.4H1247.88L1209.66 244.32V155.4ZM809.664 437.943L826.064 454.443L827.115 455.5L826.064 456.557L809.664 473.057L807.536 470.943L821.394 457H758V454H821.394L807.536 440.057L809.664 437.943ZM610.465 445.867V463H620.52V460.598H613.266V445.867H610.465ZM624.105 461.477C625.246 462.648 626.824 463.234 628.84 463.234C629.723 463.234 630.508 463.168 631.195 463.035C631.883 462.902 632.562 462.676 633.234 462.355V460.117C632.477 460.453 631.766 460.695 631.102 460.844C630.445 460.984 629.734 461.055 628.969 461.055C627.805 461.055 626.902 460.719 626.262 460.047C625.621 459.367 625.281 458.398 625.242 457.141H633.879V455.652C633.879 453.832 633.383 452.402 632.391 451.363C631.398 450.324 630.047 449.805 628.336 449.805C626.492 449.805 625.043 450.41 623.988 451.621C622.934 452.832 622.406 454.496 622.406 456.613C622.406 458.676 622.973 460.297 624.105 461.477ZM626.227 452.723C626.758 452.168 627.461 451.891 628.336 451.891C629.211 451.891 629.898 452.168 630.398 452.723C630.898 453.27 631.156 454.078 631.172 455.148H625.289C625.391 454.086 625.703 453.277 626.227 452.723ZM644.566 461.195L645.117 463H647.086V454.27C647.086 452.73 646.664 451.602 645.82 450.883C644.984 450.164 643.742 449.805 642.094 449.805C641.352 449.805 640.562 449.902 639.727 450.098C638.891 450.285 638.121 450.562 637.418 450.93L638.309 452.898C638.871 452.633 639.457 452.402 640.066 452.207C640.676 452.012 641.312 451.914 641.977 451.914C642.789 451.914 643.387 452.121 643.77 452.535C644.16 452.941 644.355 453.559 644.355 454.387V455.078L642.117 455.148C640.086 455.211 638.574 455.582 637.582 456.262C636.59 456.941 636.094 457.949 636.094 459.285C636.094 460.543 636.449 461.516 637.16 462.203C637.879 462.891 638.875 463.234 640.148 463.234C641.141 463.234 641.953 463.094 642.586 462.812C643.219 462.523 643.848 461.984 644.473 461.195H644.566ZM643.418 460.293C642.816 460.848 642.016 461.125 641.016 461.125C640.328 461.125 639.812 460.969 639.469 460.656C639.125 460.336 638.953 459.887 638.953 459.309C638.953 458.512 639.246 457.922 639.832 457.539C640.426 457.148 641.371 456.93 642.668 456.883L644.332 456.812V457.938C644.332 458.945 644.027 459.73 643.418 460.293ZM658.875 449.922C658.516 449.844 658.059 449.805 657.504 449.805C656.707 449.805 655.961 450.031 655.266 450.484C654.578 450.938 654.02 451.551 653.59 452.324H653.449L653.086 450.039H650.93V463H653.684V456.227C653.684 455.078 654.023 454.145 654.703 453.426C655.391 452.707 656.285 452.348 657.387 452.348C657.809 452.348 658.215 452.395 658.605 452.488L658.875 449.922ZM669.926 463H672.691V454.551C672.691 451.387 671.137 449.805 668.027 449.805C667.152 449.805 666.355 449.973 665.637 450.309C664.918 450.645 664.363 451.121 663.973 451.738H663.832L663.445 450.039H661.289V463H664.043V456.543C664.043 454.926 664.312 453.773 664.852 453.086C665.391 452.398 666.242 452.055 667.406 452.055C668.281 452.055 668.918 452.301 669.316 452.793C669.723 453.285 669.926 454.031 669.926 455.031V463ZM685.488 448.691L690.457 463H692.93L698.074 448.715H698.168C698.149 448.89 698.127 449.264 698.102 449.836C698.086 450.207 698.069 450.661 698.051 451.199C698.012 452.566 697.992 453.676 697.992 454.527V463H700.688V445.867H696.727L691.828 459.496H691.758L687 445.867H683.051V463H685.594V454.668C685.594 452.809 685.527 450.816 685.395 448.691H685.488ZM714.773 461.453C715.859 460.266 716.402 458.613 716.402 456.496C716.402 454.449 715.855 452.824 714.762 451.621C713.668 450.41 712.184 449.805 710.309 449.805C708.348 449.805 706.828 450.395 705.75 451.574C704.672 452.754 704.133 454.395 704.133 456.496C704.133 457.848 704.383 459.035 704.883 460.059C705.383 461.082 706.098 461.867 707.027 462.414C707.957 462.961 709.027 463.234 710.238 463.234C712.176 463.234 713.688 462.641 714.773 461.453ZM710.285 460.984C708.074 460.984 706.969 459.488 706.969 456.496C706.969 455.066 707.227 453.969 707.742 453.203C708.266 452.438 709.105 452.055 710.262 452.055C712.465 452.055 713.566 453.535 713.566 456.496C713.566 459.488 712.473 460.984 710.285 460.984ZM727.523 449.922C727.164 449.844 726.707 449.805 726.152 449.805C725.355 449.805 724.609 450.031 723.914 450.484C723.227 450.938 722.668 451.551 722.238 452.324H722.098L721.734 450.039H719.578V463H722.332V456.227C722.332 455.078 722.672 454.145 723.352 453.426C724.039 452.707 724.934 452.348 726.035 452.348C726.457 452.348 726.863 452.395 727.254 452.488L727.523 449.922ZM730.863 461.477C732.004 462.648 733.582 463.234 735.598 463.234C736.48 463.234 737.266 463.168 737.953 463.035C738.641 462.902 739.32 462.676 739.992 462.355V460.117C739.234 460.453 738.523 460.695 737.859 460.844C737.203 460.984 736.492 461.055 735.727 461.055C734.562 461.055 733.66 460.719 733.02 460.047C732.379 459.367 732.039 458.398 732 457.141H740.637V455.652C740.637 453.832 740.141 452.402 739.148 451.363C738.156 450.324 736.805 449.805 735.094 449.805C733.25 449.805 731.801 450.41 730.746 451.621C729.691 452.832 729.164 454.496 729.164 456.613C729.164 458.676 729.73 460.297 730.863 461.477ZM732.984 452.723C733.516 452.168 734.219 451.891 735.094 451.891C735.969 451.891 736.656 452.168 737.156 452.723C737.656 453.27 737.914 454.078 737.93 455.148H732.047C732.148 454.086 732.461 453.277 732.984 452.723Z" fill="white"/>
</g>
<defs>
<clipPath id="clip0">
<rect width="1440" height="762" fill="white"/>
</clipPath>
</defs>
</svg>
