<svg width="128" height="128" viewBox="0 0 128 128" fill="none" xmlns="http://www.w3.org/2000/svg">
<g clip-path="url(#clip0)">
<path d="M120 56C118.227 56.0013 116.506 56.5913 115.105 57.6773C113.704 58.7632 112.703 60.2837 112.26 62H102C101.544 53.3151 98.1114 45.0521 92.28 38.6L99.59 31.29C101.267 32.2786 103.248 32.6216 105.16 32.2546C107.072 31.8876 108.785 30.8358 109.977 29.2965C111.169 27.7571 111.759 25.8358 111.636 23.8927C111.513 21.9495 110.686 20.1179 109.309 18.7411C107.932 17.3643 106.1 16.5369 104.157 16.4139C102.214 16.291 100.293 16.8808 98.7535 18.0731C97.2141 19.2653 96.1624 20.9779 95.7954 22.8901C95.4284 24.8022 95.7714 26.7826 96.76 28.46L89.4 35.77C82.9479 29.9385 74.6849 26.5062 66 26.05V15.74C67.8853 15.2532 69.5284 14.0955 70.6212 12.484C71.714 10.8724 72.1816 8.91761 71.9362 6.98598C71.6909 5.05436 70.7495 3.27852 69.2885 1.99134C67.8274 0.704163 65.9471 -0.00598145 64 -0.00598145C62.0528 -0.00598145 60.1725 0.704163 58.7115 1.99134C57.2505 3.27852 56.3091 5.05436 56.0637 6.98598C55.8184 8.91761 56.286 10.8724 57.3788 12.484C58.4716 14.0955 60.1147 15.2532 62 15.74V26.05C53.3151 26.5062 45.0521 29.9385 38.6 35.77L31.29 28.46C32.2786 26.7826 32.6216 24.8022 32.2546 22.8901C31.8876 20.9779 30.8358 19.2653 29.2965 18.0731C27.7571 16.8808 25.8358 16.291 23.8927 16.4139C21.9495 16.5369 20.1179 17.3643 18.7411 18.7411C17.3643 20.1179 16.5369 21.9495 16.4139 23.8927C16.291 25.8358 16.8808 27.7571 18.0731 29.2965C19.2653 30.8358 20.9779 31.8876 22.8901 32.2546C24.8022 32.6216 26.7826 32.2786 28.46 31.29L35.77 38.6C29.9385 45.0521 26.5062 53.3151 26.05 62H15.74C15.2532 60.1147 14.0955 58.4716 12.484 57.3788C10.8724 56.286 8.91761 55.8184 6.98598 56.0637C5.05436 56.3091 3.27852 57.2505 1.99134 58.7115C0.704163 60.1725 -0.00598145 62.0528 -0.00598145 64C-0.00598145 65.9471 0.704163 67.8274 1.99134 69.2885C3.27852 70.7495 5.05436 71.6909 6.98598 71.9362C8.91761 72.1816 10.8724 71.714 12.484 70.6212C14.0955 69.5284 15.2532 67.8853 15.74 66H26.05C26.5062 74.6849 29.9385 82.9479 35.77 89.4L28.46 96.71C26.7826 95.7214 24.8022 95.3784 22.8901 95.7454C20.9779 96.1124 19.2653 97.1641 18.0731 98.7035C16.8808 100.243 16.291 102.164 16.4139 104.107C16.5369 106.05 17.3643 107.882 18.7411 109.259C20.1179 110.636 21.9495 111.463 23.8927 111.586C25.8358 111.709 27.7571 111.119 29.2965 109.927C30.8358 108.735 31.8876 107.022 32.2546 105.11C32.6216 103.198 32.2786 101.217 31.29 99.54L38.6 92.23C45.0451 98.0796 53.3088 101.53 62 102V112.31C60.1147 112.797 58.4716 113.954 57.3788 115.566C56.286 117.178 55.8184 119.132 56.0637 121.064C56.3091 122.996 57.2505 124.771 58.7115 126.059C60.1725 127.346 62.0528 128.056 64 128.056C65.9471 128.056 67.8274 127.346 69.2885 126.059C70.7495 124.771 71.6909 122.996 71.9362 121.064C72.1816 119.132 71.714 117.178 70.6212 115.566C69.5284 113.954 67.8853 112.797 66 112.31V102C74.6849 101.544 82.9479 98.1114 89.4 92.28L96.71 99.59C95.7214 101.267 95.3784 103.248 95.7454 105.16C96.1124 107.072 97.1641 108.785 98.7035 109.977C100.243 111.169 102.164 111.759 104.107 111.636C106.05 111.513 107.882 110.686 109.259 109.309C110.636 107.932 111.463 106.1 111.586 104.157C111.709 102.214 111.119 100.293 109.927 98.7535C108.735 97.2141 107.022 96.1624 105.11 95.7954C103.198 95.4284 101.217 95.7714 99.54 96.76L92.23 89.4C98.0796 82.9549 101.53 74.6911 102 66H112.31C112.685 67.451 113.459 68.7676 114.546 69.7998C115.632 70.832 116.987 71.5382 118.455 71.8381C119.924 72.1379 121.447 72.0192 122.851 71.4956C124.255 70.972 125.484 70.0645 126.398 68.8766C127.311 67.6886 127.873 66.2679 128.018 64.7763C128.164 63.2847 127.887 61.7823 127.22 60.4402C126.554 59.0981 125.523 57.9703 124.247 57.1852C122.97 56.4002 121.499 55.9895 120 56ZM100.77 21.57C101.424 20.9153 102.285 20.5076 103.206 20.4163C104.126 20.3251 105.05 20.556 105.82 21.0696C106.59 21.5832 107.158 22.3479 107.427 23.2332C107.696 24.1186 107.65 25.0699 107.297 25.9251C106.943 26.7803 106.304 27.4864 105.488 27.9232C104.672 28.36 103.73 28.5004 102.822 28.3205C101.915 28.1407 101.097 27.6516 100.51 26.9368C99.9223 26.2219 99.6007 25.3254 99.6 24.4C99.5996 23.8745 99.7027 23.3542 99.9034 22.8686C100.104 22.383 100.399 21.9417 100.77 21.57ZM60 7.99999C60 7.20886 60.2346 6.4355 60.6741 5.7777C61.1136 5.11991 61.7383 4.60722 62.4692 4.30447C63.2002 4.00172 64.0044 3.9225 64.7803 4.07684C65.5563 4.23118 66.269 4.61215 66.8284 5.17156C67.3878 5.73097 67.7688 6.4437 67.9231 7.21962C68.0775 7.99555 67.9983 8.79982 67.6955 9.53072C67.3928 10.2616 66.8801 10.8863 66.2223 11.3259C65.5645 11.7654 64.7911 12 64 12C62.9391 12 61.9217 11.5786 61.1716 10.8284C60.4214 10.0783 60 9.06085 60 7.99999ZM21.57 27.23C20.8194 26.4794 20.3978 25.4614 20.3978 24.4C20.3978 23.3385 20.8194 22.3205 21.57 21.57C22.3205 20.8194 23.3385 20.3978 24.4 20.3978C25.4614 20.3978 26.4794 20.8194 27.23 21.57C27.9805 22.3205 28.4022 23.3385 28.4022 24.4C28.4022 25.4614 27.9805 26.4794 27.23 27.23C26.4794 27.9805 25.4614 28.4022 24.4 28.4022C23.3385 28.4022 22.3205 27.9805 21.57 27.23ZM7.99999 68C7.20886 68 6.4355 67.7654 5.7777 67.3259C5.11991 66.8863 4.60722 66.2616 4.30447 65.5307C4.00172 64.7998 3.9225 63.9955 4.07684 63.2196C4.23118 62.4437 4.61215 61.731 5.17156 61.1716C5.73097 60.6121 6.4437 60.2312 7.21962 60.0768C7.99555 59.9225 8.79982 60.0017 9.53072 60.3045C10.2616 60.6072 10.8863 61.1199 11.3259 61.7777C11.7654 62.4355 12 63.2089 12 64C12 65.0609 11.5786 66.0783 10.8284 66.8284C10.0783 67.5786 9.06085 68 7.99999 68ZM27.23 106.43C26.4794 107.181 25.4614 107.602 24.4 107.602C23.3385 107.602 22.3205 107.181 21.57 106.43C20.8194 105.679 20.3978 104.661 20.3978 103.6C20.3978 102.539 20.8194 101.521 21.57 100.77C21.9416 100.398 22.3828 100.104 22.8684 99.9024C23.354 99.7013 23.8744 99.5978 24.4 99.5978C24.9256 99.5978 25.446 99.7013 25.9316 99.9024C26.4171 100.104 26.8583 100.398 27.23 100.77C27.6016 101.142 27.8964 101.583 28.0976 102.068C28.2987 102.554 28.4022 103.074 28.4022 103.6C28.4022 104.126 28.2987 104.646 28.0976 105.132C27.8964 105.617 27.6016 106.058 27.23 106.43ZM68 120C68 120.791 67.7654 121.564 67.3259 122.222C66.8863 122.88 66.2616 123.393 65.5307 123.696C64.7998 123.998 63.9955 124.077 63.2196 123.923C62.4437 123.769 61.731 123.388 61.1716 122.828C60.6121 122.269 60.2312 121.556 60.0768 120.78C59.9225 120.004 60.0017 119.2 60.3045 118.469C60.6072 117.738 61.1199 117.114 61.7777 116.674C62.4355 116.235 63.2089 116 64 116C65.0609 116 66.0783 116.421 66.8284 117.172C67.5786 117.922 68 118.939 68 120ZM106.43 100.77C107.181 101.521 107.602 102.539 107.602 103.6C107.602 104.661 107.181 105.679 106.43 106.43C105.679 107.181 104.661 107.602 103.6 107.602C102.539 107.602 101.521 107.181 100.77 106.43C100.019 105.679 99.5978 104.661 99.5978 103.6C99.5978 102.539 100.019 101.521 100.77 100.77C101.521 100.019 102.539 99.5978 103.6 99.5978C104.661 99.5978 105.679 100.019 106.43 100.77ZM64 98C57.2754 98 50.7019 96.0059 45.1106 92.27C39.5193 88.534 35.1615 83.2239 32.5881 77.0112C30.0147 70.7985 29.3414 63.9623 30.6533 57.3669C31.9652 50.7716 35.2034 44.7133 39.9584 39.9584C44.7133 35.2034 50.7716 31.9652 57.3669 30.6533C63.9623 29.3414 70.7985 30.0147 77.0112 32.5881C83.2239 35.1615 88.534 39.5193 92.27 45.1106C96.0059 50.7019 98 57.2754 98 64C98 73.0173 94.4179 81.6654 88.0416 88.0416C81.6654 94.4179 73.0173 98 64 98ZM120 68C119.209 68 118.436 67.7654 117.778 67.3259C117.12 66.8863 116.607 66.2616 116.304 65.5307C116.002 64.7998 115.923 63.9955 116.077 63.2196C116.231 62.4437 116.612 61.731 117.172 61.1716C117.731 60.6121 118.444 60.2312 119.22 60.0768C119.996 59.9225 120.8 60.0017 121.531 60.3045C122.262 60.6072 122.886 61.1199 123.326 61.7777C123.765 62.4355 124 63.2089 124 64C124 65.0609 123.579 66.0783 122.828 66.8284C122.078 67.5786 121.061 68 120 68Z" fill="black"/>
<path d="M40.34 58.34C39.2221 59.4592 38.461 60.8847 38.1531 62.4363C37.8451 63.9879 38.0041 65.5959 38.6098 67.0572C39.2156 68.5185 40.241 69.7674 41.5564 70.6461C42.8718 71.5247 44.4181 71.9937 46 71.9937C47.5819 71.9937 49.1282 71.5247 50.4436 70.6461C51.759 69.7674 52.7844 68.5185 53.3902 67.0572C53.996 65.5959 54.1549 63.9879 53.8469 62.4363C53.539 60.8847 52.7779 59.4592 51.66 58.34C50.917 57.5962 50.0347 57.0061 49.0635 56.6035C48.0923 56.2009 47.0513 55.9937 46 55.9937C44.9487 55.9937 43.9077 56.2009 42.9365 56.6035C41.9653 57.0061 41.083 57.5962 40.34 58.34ZM48.83 66.83C48.2704 67.389 47.5577 67.7695 46.7819 67.9235C46.0061 68.0775 45.202 67.998 44.4714 67.6951C43.7407 67.3922 43.1163 66.8795 42.677 66.2218C42.2376 65.5641 42.0032 64.7909 42.0032 64C42.0032 63.2091 42.2376 62.4359 42.677 61.7782C43.1163 61.1205 43.7407 60.6078 44.4714 60.3049C45.202 60.002 46.0061 59.9226 46.7819 60.0765C47.5577 60.2305 48.2704 60.611 48.83 61.17C49.2019 61.5415 49.4969 61.9827 49.6982 62.4682C49.8995 62.9538 50.0031 63.4743 50.0031 64C50.0031 64.5257 49.8995 65.0462 49.6982 65.5318C49.4969 66.0174 49.2019 66.4585 48.83 66.83Z" fill="black"/>
<path d="M58.34 40.34C57.2221 41.4592 56.461 42.8847 56.1531 44.4363C55.8451 45.9879 56.0041 47.5959 56.6098 49.0572C57.2156 50.5185 58.241 51.7674 59.5564 52.6461C60.8718 53.5247 62.4181 53.9937 64 53.9937C65.5819 53.9937 67.1282 53.5247 68.4436 52.6461C69.759 51.7674 70.7844 50.5185 71.3902 49.0572C71.9959 47.5959 72.1549 45.9879 71.8469 44.4363C71.539 42.8847 70.7779 41.4592 69.66 40.34C68.917 39.5962 68.0347 39.0061 67.0635 38.6035C66.0923 38.2009 65.0513 37.9937 64 37.9937C62.9487 37.9937 61.9077 38.2009 60.9365 38.6035C59.9653 39.0061 59.083 39.5962 58.34 40.34ZM66.83 48.83C66.2704 49.389 65.5577 49.7695 64.7819 49.9235C64.0061 50.0775 63.202 49.998 62.4714 49.6951C61.7407 49.3922 61.1163 48.8795 60.677 48.2218C60.2376 47.5641 60.0032 46.7909 60.0032 46C60.0032 45.2091 60.2376 44.4359 60.677 43.7782C61.1163 43.1205 61.7407 42.6078 62.4714 42.3049C63.202 42.002 64.0061 41.9226 64.7819 42.0765C65.5577 42.2305 66.2704 42.611 66.83 43.17C67.2019 43.5415 67.4969 43.9827 67.6982 44.4682C67.8995 44.9538 68.0031 45.4743 68.0031 46C68.0031 46.5257 67.8995 47.0462 67.6982 47.5318C67.4969 48.0174 67.2019 48.4585 66.83 48.83Z" fill="black"/>
<path d="M76.34 58.34C75.2221 59.4592 74.461 60.8847 74.1531 62.4363C73.8451 63.9879 74.0041 65.5959 74.6098 67.0572C75.2156 68.5185 76.241 69.7674 77.5564 70.6461C78.8718 71.5247 80.4181 71.9937 82 71.9937C83.5819 71.9937 85.1282 71.5247 86.4436 70.6461C87.759 69.7674 88.7844 68.5185 89.3902 67.0572C89.9959 65.5959 90.1549 63.9879 89.8469 62.4363C89.539 60.8847 88.7779 59.4592 87.66 58.34C86.917 57.5962 86.0347 57.0061 85.0635 56.6035C84.0923 56.2009 83.0513 55.9937 82 55.9937C80.9487 55.9937 79.9077 56.2009 78.9365 56.6035C77.9653 57.0061 77.083 57.5962 76.34 58.34ZM84.83 66.83C84.2704 67.389 83.5577 67.7695 82.7819 67.9235C82.0061 68.0775 81.202 67.998 80.4714 67.6951C79.7407 67.3922 79.1163 66.8795 78.677 66.2218C78.2376 65.5641 78.0031 64.7909 78.0031 64C78.0031 63.2091 78.2376 62.4359 78.677 61.7782C79.1163 61.1205 79.7407 60.6078 80.4714 60.3049C81.202 60.002 82.0061 59.9226 82.7819 60.0765C83.5577 60.2305 84.2704 60.611 84.83 61.17C85.2019 61.5415 85.4969 61.9827 85.6982 62.4682C85.8995 62.9538 86.0031 63.4743 86.0031 64C86.0031 64.5257 85.8995 65.0462 85.6982 65.5318C85.4969 66.0174 85.2019 66.4585 84.83 66.83Z" fill="black"/>
<path d="M58.34 76.34C57.2221 77.4592 56.461 78.8847 56.1531 80.4363C55.8451 81.9879 56.0041 83.5959 56.6098 85.0572C57.2156 86.5185 58.241 87.7674 59.5564 88.6461C60.8718 89.5247 62.4181 89.9937 64 89.9937C65.5819 89.9937 67.1282 89.5247 68.4436 88.6461C69.759 87.7674 70.7844 86.5185 71.3902 85.0572C71.9959 83.5959 72.1549 81.9879 71.8469 80.4363C71.539 78.8847 70.7779 77.4592 69.66 76.34C68.917 75.5962 68.0347 75.0061 67.0635 74.6035C66.0923 74.2009 65.0513 73.9937 64 73.9937C62.9487 73.9937 61.9077 74.2009 60.9365 74.6035C59.9653 75.0061 59.083 75.5962 58.34 76.34ZM66.83 84.83C66.2704 85.389 65.5577 85.7695 64.7819 85.9235C64.0061 86.0775 63.202 85.998 62.4714 85.6951C61.7407 85.3922 61.1163 84.8795 60.677 84.2218C60.2376 83.5641 60.0032 82.7909 60.0032 82C60.0032 81.2091 60.2376 80.4359 60.677 79.7782C61.1163 79.1205 61.7407 78.6078 62.4714 78.3049C63.202 78.002 64.0061 77.9226 64.7819 78.0765C65.5577 78.2305 66.2704 78.611 66.83 79.17C67.2019 79.5415 67.4969 79.9827 67.6982 80.4682C67.8995 80.9538 68.0031 81.4743 68.0031 82C68.0031 82.5257 67.8995 83.0462 67.6982 83.5318C67.4969 84.0174 67.2019 84.4585 66.83 84.83Z" fill="black"/>
</g>
<defs>
<clipPath id="clip0">
<rect width="128" height="128" fill="white"/>
</clipPath>
</defs>
</svg>
